<svg xmlns="http://www.w3.org/2000/svg" viewBox="0 0 620 563" enable-background="new 0 0 620 563"><g fill="#2aadbc"><circle cx="231" cy="299" r="3"/><circle cx="322" cy="487" r="3"/><circle cx="32" cy="390" r="3"/></g><circle cx="495" cy="126" r="3" fill="#bdbdbd"/><circle cx="375" cy="328" r="3" fill="#2aadbc"/><circle cx="543" cy="134" r="3" fill="#bdbdbd"/><circle cx="431" cy="443" r="3" fill="#2aadbc"/><circle cx="602" cy="233" r="3" fill="#bdbdbd"/><g fill="#2aadbc"><circle cx="274" cy="542" r="3"/><circle cx="81" cy="136" r="3"/><circle cx="417" cy="424" r="3"/><circle cx="432" cy="384" r="3"/><circle cx="59.9" cy="420" r="3"/><circle cx="351" cy="436" r="3"/></g><circle cx="566" cy="131" r="3" fill="#bdbdbd"/><g fill="#2aadbc"><circle cx="458" cy="292" r="3"/><circle cx="25.5" cy="213" r="3"/></g><g fill="#bdbdbd"><circle cx="534" cy="67" r="3"/><circle cx="521" cy="285" r="3"/></g><g fill="#2aadbc"><circle cx="259" cy="498" r="3"/><circle cx="166" cy="429" r="3"/><circle cx="179" cy="474" r="3"/><circle cx="218" cy="524" r="3"/><circle cx="59.7" cy="255" r="3"/><circle cx="159" cy="516" r="3"/><circle cx="225" cy="546" r="3"/></g><circle cx="548" cy="284" r="3" fill="#bdbdbd"/><g fill="#2aadbc"><circle cx="171" cy="369" r="3"/><circle cx="475" cy="370" r="3"/><circle cx="430" cy="314" r="3"/><circle cx="254" cy="524" r="3"/><circle cx="265" cy="328" r="3"/></g><g fill="#bdbdbd"><circle cx="516" cy="272" r="3"/><circle cx="555" cy="139" r="3"/></g><g fill="#2aadbc"><circle cx="311" cy="478" r="3"/><circle cx="325" cy="460" r="3"/></g><circle cx="529" cy="248" r="3" fill="#bdbdbd"/><g fill="#2aadbc"><circle cx="147" cy="458" r="3"/><circle cx="229" cy="471" r="3"/></g><circle cx="445" cy="192" r="3" fill="#bdbdbd"/><circle cx="361" cy="444" r="3" fill="#2aadbc"/><circle cx="567" cy="223" r="3" fill="#bdbdbd"/><g fill="#2aadbc"><circle cx="440" cy="421" r="3"/><circle cx="149" cy="362" r="3"/><circle cx="45" cy="387" r="3"/><circle cx="230" cy="412" r="3"/><circle cx="49" cy="374" r="3"/></g><g fill="#bdbdbd"><circle cx="569" cy="247" r="3"/><circle cx="508" cy="42.9" r="3"/><circle cx="576" cy="258" r="3"/></g><g fill="#2aadbc"><circle cx="370" cy="478" r="3"/><circle cx="456" cy="316" r="3"/><circle cx="167" cy="381" r="3"/><circle cx="105" cy="433" r="3"/></g><circle cx="556" cy="271" r="3" fill="#bdbdbd"/><circle cx="482" cy="321" r="3" fill="#2aadbc"/><circle cx="536" cy="80" r="3" fill="#bdbdbd"/><g fill="#2aadbc"><circle cx="154" cy="384" r="3"/><circle cx="272" cy="493" r="3"/><circle cx="396" cy="425" r="3"/><circle cx="356" cy="420" r="3"/><circle cx="255" cy="403" r="3"/></g><circle cx="489" cy="273" r="3" fill="#bdbdbd"/><circle cx="192" cy="470" r="3" fill="#2aadbc"/><g fill="#bdbdbd"><circle cx="505" cy="16" r="3"/><circle cx="607" cy="187" r="3"/></g><g fill="#2aadbc"><circle cx="357" cy="484" r="3"/><circle cx="339" cy="442" r="3"/><circle cx="213" cy="488" r="3"/></g><g fill="#bdbdbd"><circle cx="512" cy="171" r="3"/><circle cx="573" cy="96" r="3"/></g><g fill="#2aadbc"><circle cx="185" cy="448" r="3"/><circle cx="176" cy="438" r="3"/><circle cx="56" cy="433" r="3"/></g><circle cx="503" cy="273" r="3" fill="#bdbdbd"/><g fill="#2aadbc"><circle cx="509" cy="323" r="3"/><circle cx="331" cy="232" r="3"/><circle cx="441" cy="435" r="3"/><circle cx="50.6" cy="410" r="3"/><circle cx="285" cy="428" r="3"/><circle cx="327" cy="447" r="3"/><circle cx="179" cy="426" r="3"/><circle cx="64" cy="407" r="3"/><circle cx="359" cy="471" r="3"/><circle cx="203" cy="479" r="3"/><circle cx="341" cy="516" r="3"/><circle cx="441" cy="374" r="3"/><circle cx="403" cy="311" r="3"/><circle cx="182" cy="523" r="3"/><circle cx="343" cy="416" r="3"/><circle cx="395" cy="454" r="3"/><circle cx="300" cy="471" r="3"/><circle cx="331" cy="276" r="3"/><circle cx="475" cy="397" r="3"/><circle cx="169" cy="526" r="3"/><circle cx="398" cy="391" r="3"/><circle cx="449" cy="385" r="3"/><circle cx="220" cy="511" r="3"/><circle cx="487" cy="383" r="3"/><circle cx="374" cy="438" r="3"/><circle cx="375" cy="399" r="3"/><circle cx="449" cy="364" r="3"/><circle cx="249" cy="489" r="3"/><circle cx="304" cy="518" r="3"/><circle cx="430" cy="483" r="3"/><circle cx="76" cy="452" r="3"/><circle cx="372" cy="452" r="3"/><circle cx="326" cy="400" r="3"/><circle cx="296" cy="424" r="3"/></g><circle cx="561" cy="193" r="3" fill="#bdbdbd"/><g fill="#2aadbc"><circle cx="205" cy="528" r="3"/><circle cx="95" cy="423" r="3"/><circle cx="208" cy="515" r="3"/><circle cx="103" cy="397" r="3"/><circle cx="392" cy="494" r="3"/><circle cx="62" cy="371" r="3"/><circle cx="356" cy="497" r="3"/><circle cx="362" cy="397" r="3"/><circle cx="372" cy="422" r="3"/><circle cx="147" cy="410" r="3"/><circle cx="266" cy="520" r="3"/><circle cx="417" cy="313" r="3"/><circle cx="426" cy="337" r="3"/></g><circle cx="509" cy="261" r="3" fill="#bdbdbd"/><g fill="#2aadbc"><circle cx="365" cy="518" r="3"/><circle cx="161" cy="503" r="3"/><circle cx="418" cy="439" r="3"/><circle cx="383" cy="459" r="3"/><circle cx="198" cy="444" r="3"/><circle cx="236" cy="493" r="3"/></g><circle cx="550" cy="99" r="3" fill="#bdbdbd"/><circle cx="343" cy="503" r="3" fill="#2aadbc"/><g fill="#bdbdbd"><circle cx="509" cy="145" r="3"/><circle cx="607" cy="218" r="3"/></g><g fill="#2aadbc"><circle cx="476" cy="424" r="3"/><circle cx="138" cy="497" r="3"/><circle cx="159" cy="455" r="3"/></g><circle cx="609" cy="201" r="3" fill="#bdbdbd"/><g fill="#2aadbc"><circle cx="282" cy="502" r="3"/><circle cx="185" cy="510" r="3"/><circle cx="451" cy="414" r="3"/><circle cx="384" cy="389" r="3"/></g><circle cx="516" cy="225" r="3" fill="#bdbdbd"/><g fill="#2aadbc"><circle cx="228" cy="533" r="3"/><circle cx="239" cy="480" r="3"/><circle cx="465" cy="405" r="3"/><circle cx="273" cy="381" r="3"/></g><circle cx="541" cy="120" r="3" fill="#bdbdbd"/><g fill="#2aadbc"><circle cx="406" cy="417" r="3"/><circle cx="345" cy="489" r="3"/><circle cx="383" cy="429" r="3"/><circle cx="187" cy="497" r="3"/><circle cx="221" cy="449" r="3"/><circle cx="280" cy="348" r="3"/></g><circle cx="526" cy="190" r="3" fill="#bdbdbd"/><g fill="#2aadbc"><circle cx="164" cy="490" r="3"/><circle cx="46.9" cy="423" r="3"/><circle cx="251" cy="537" r="3"/></g><circle cx="615" cy="153" r="3" fill="#bdbdbd"/><g fill="#2aadbc"><circle cx="338" cy="404" r="3"/><circle cx="445" cy="351" r="3"/></g><circle cx="482" cy="261" r="3" fill="#bdbdbd"/><g fill="#2aadbc"><circle cx="428" cy="372" r="3"/><circle cx="163" cy="393" r="3"/><circle cx="485" cy="298" r="3"/><circle cx="190" cy="545" r="3"/><circle cx="275" cy="480" r="3"/><circle cx="188" cy="435" r="3"/><circle cx="227" cy="424" r="3"/><circle cx="236" cy="433" r="3"/><circle cx="112" cy="504" r="3"/></g><circle cx="496" cy="261" r="3" fill="#bdbdbd"/><circle cx="346" cy="476" r="3" fill="#2aadbc"/><circle cx="584" cy="88" r="3" fill="#bdbdbd"/><g fill="#2aadbc"><circle cx="363" cy="430" r="3"/><circle cx="424" cy="233" r="3"/></g><g fill="#bdbdbd"><circle cx="476" cy="250" r="3"/><circle cx="516" cy="212" r="3"/></g><g fill="#2aadbc"><circle cx="337" cy="455" r="3"/><circle cx="114" cy="491" r="3"/><circle cx="406" cy="381" r="3"/><circle cx="439" cy="339" r="3"/></g><circle cx="610" cy="112" r="3" fill="#bdbdbd"/><g fill="#2aadbc"><circle cx="438" cy="280" r="3"/><circle cx="501" cy="336" r="3"/><circle cx="457" cy="353" r="3"/><circle cx="217" cy="335" r="3"/><circle cx="341" cy="428" r="3"/><circle cx="282" cy="116" r="3"/><circle cx="315" cy="452" r="3"/><circle cx="444" cy="245" r="3"/><circle cx="264" cy="267" r="3"/><circle cx="218" cy="368" r="3"/><circle cx="246" cy="502" r="3"/><circle cx="279" cy="454" r="3"/><circle cx="293" cy="509" r="3"/><circle cx="125" cy="501" r="3"/><circle cx="332" cy="495" r="3"/></g><circle cx="524" cy="75" r="3" fill="#bdbdbd"/><circle cx="220" cy="403" r="3" fill="#2aadbc"/><circle cx="573" cy="198" r="3" fill="#bdbdbd"/><g fill="#2aadbc"><circle cx="403" cy="291" r="3"/><circle cx="306" cy="430" r="3"/><circle cx="298" cy="483" r="3"/><circle cx="264" cy="533" r="3"/><circle cx="302" cy="406" r="3"/><circle cx="166" cy="477" r="3"/><circle cx="117" cy="311" r="3"/><circle cx="82" cy="426" r="3"/></g><circle cx="530" cy="128" r="3" fill="#bdbdbd"/><g fill="#2aadbc"><circle cx="397" cy="356" r="3"/><circle cx="382" cy="473" r="3"/><circle cx="391" cy="305" r="3"/></g><g fill="#bdbdbd"><circle cx="561" cy="91" r="3"/><circle cx="613" cy="139" r="3"/><circle cx="606" cy="174" r="3"/></g><circle cx="312" cy="539" r="3" fill="#2aadbc"/><circle cx="504" cy="105" r="3" fill="#bdbdbd"/><g fill="#2aadbc"><circle cx="241" cy="528" r="3"/><circle cx="471" cy="355" r="3"/><circle cx="404" cy="488" r="3"/><circle cx="337" cy="174" r="3"/><circle cx="387" cy="331" r="3"/><circle cx="462" cy="365" r="3"/><circle cx="411" cy="233" r="3"/><circle cx="406" cy="461" r="3"/><circle cx="358" cy="385" r="3"/></g><circle cx="564" cy="118" r="3" fill="#bdbdbd"/><g fill="#2aadbc"><circle cx="489" cy="396" r="3"/><circle cx="323" cy="473" r="3"/><circle cx="145" cy="520" r="3"/></g><circle cx="585" cy="102" r="3" fill="#bdbdbd"/><circle cx="406" cy="446" r="3" fill="#2aadbc"/><circle cx="560" cy="180" r="3" fill="#bdbdbd"/><g fill="#2aadbc"><circle cx="248" cy="550" r="3"/><circle cx="410" cy="280" r="3"/></g><circle cx="509" cy="237" r="3" fill="#bdbdbd"/><g fill="#2aadbc"><circle cx="344" cy="382" r="3"/><circle cx="394" cy="467" r="3"/><circle cx="79" cy="439" r="3"/></g><circle cx="533" cy="53.7" r="3" fill="#bdbdbd"/><circle cx="393" cy="480" r="3" fill="#2aadbc"/><circle cx="574" cy="211" r="3" fill="#bdbdbd"/><g fill="#2aadbc"><circle cx="390" cy="292" r="3"/><circle cx="177" cy="487" r="3"/></g><circle cx="582" cy="74.9" r="3" fill="#bdbdbd"/><g fill="#2aadbc"><circle cx="384" cy="280" r="3"/><circle cx="179" cy="536" r="3"/><circle cx="135" cy="510" r="3"/><circle cx="377" cy="176" r="3"/><circle cx="424" cy="302" r="3"/><circle cx="166" cy="539" r="3"/></g><circle cx="522" cy="62" r="3" fill="#bdbdbd"/><g fill="#2aadbc"><circle cx="171" cy="513" r="3"/><circle cx="341" cy="369" r="3"/><circle cx="117" cy="478" r="3"/><circle cx="349" cy="449" r="3"/><circle cx="313" cy="465" r="3"/><circle cx="298" cy="544" r="3"/><circle cx="328" cy="367" r="3"/><circle cx="391" cy="221" r="3"/><circle cx="143" cy="533" r="3"/><circle cx="287" cy="476" r="3"/><circle cx="215" cy="537" r="3"/><circle cx="101" cy="494" r="3"/></g><g fill="#bdbdbd"><circle cx="542" cy="32" r="3"/><circle cx="554" cy="37.5" r="3"/></g><g fill="#2aadbc"><circle cx="316" cy="347" r="3"/><circle cx="514" cy="336" r="3"/><circle cx="261" cy="546" r="3"/><circle cx="288" cy="310" r="3"/><circle cx="405" cy="474" r="3"/><circle cx="443" cy="448" r="3"/><circle cx="153" cy="481" r="3"/><circle cx="319" cy="374" r="3"/><circle cx="404" cy="198" r="3"/><circle cx="452" cy="427" r="3"/></g><circle cx="585" cy="204" r="3" fill="#bdbdbd"/><circle cx="455" cy="454" r="3" fill="#2aadbc"/><circle cx="476" cy="227" r="3" fill="#bdbdbd"/><g fill="#2aadbc"><circle cx="277" cy="467" r="3"/><circle cx="331" cy="419" r="3"/><circle cx="307" cy="505" r="3"/><circle cx="442" cy="461" r="3"/><circle cx="316" cy="439" r="3"/><circle cx="224" cy="437" r="3"/></g><g fill="#bdbdbd"><circle cx="517" cy="21.5" r="3"/><circle cx="568" cy="56" r="3"/></g><g fill="#2aadbc"><circle cx="314" cy="526" r="3"/><circle cx="443" cy="475" r="3"/></g><circle cx="571" cy="83" r="3" fill="#bdbdbd"/><g fill="#2aadbc"><circle cx="353" cy="372" r="3"/><circle cx="431" cy="469" r="3"/><circle cx="368" cy="492" r="3"/><circle cx="334" cy="481" r="3"/><circle cx="463" cy="392" r="3"/><circle cx="477" cy="411" r="3"/><circle cx="201" cy="432" r="3"/><circle cx="318" cy="513" r="3"/></g><g fill="#bdbdbd"><circle cx="567" cy="145" r="3"/><circle cx="556" cy="50.9" r="3"/><circle cx="532" cy="142" r="3"/></g><g fill="#2aadbc"><circle cx="95" cy="118" r="3"/><circle cx="256" cy="511" r="3"/><circle cx="318" cy="425" r="3"/><circle cx="497" cy="359" r="3"/><circle cx="192" cy="532" r="3"/><circle cx="230" cy="227" r="3"/><circle cx="354" cy="511" r="3"/><circle cx="463" cy="419" r="3"/><circle cx="357" cy="163" r="3"/><circle cx="153" cy="432" r="3"/><circle cx="380" cy="411" r="3"/><circle cx="211" cy="441" r="3"/></g><circle cx="469" cy="202" r="3" fill="#bdbdbd"/><g fill="#2aadbc"><circle cx="174" cy="500" r="3"/><circle cx="197" cy="506" r="3"/><circle cx="360" cy="457" r="3"/><circle cx="309" cy="492" r="3"/><circle cx="145" cy="375" r="3"/><circle cx="156" cy="530" r="3"/><circle cx="405" cy="346" r="3"/><circle cx="285" cy="549" r="3"/><circle cx="246" cy="357" r="3"/></g><circle cx="575" cy="110" r="3" fill="#bdbdbd"/><g fill="#2aadbc"><circle cx="307" cy="369" r="3"/><circle cx="82" cy="306" r="3"/></g><g fill="#bdbdbd"><circle cx="549" cy="188" r="3"/><circle cx="596" cy="94" r="3"/></g><g fill="#2aadbc"><circle cx="419" cy="383" r="3"/><circle cx="415" cy="495" r="3"/><circle cx="335" cy="391" r="3"/><circle cx="238" cy="541" r="3"/><circle cx="262" cy="485" r="3"/><circle cx="351" cy="243" r="3"/></g><circle cx="599" cy="120" r="3" fill="#bdbdbd"/><g fill="#2aadbc"><circle cx="163" cy="442" r="3"/><circle cx="352" cy="524" r="3"/><circle cx="289" cy="463" r="3"/><circle cx="267" cy="459" r="3"/><circle cx="418" cy="348" r="3"/></g><circle cx="582" cy="246" r="3" fill="#bdbdbd"/><g fill="#2aadbc"><circle cx="153" cy="543" r="3"/><circle cx="231" cy="519" r="3"/><circle cx="151" cy="493" r="3"/></g><circle cx="570" cy="70" r="3" fill="#bdbdbd"/><g fill="#2aadbc"><circle cx="196" cy="362" r="3"/><circle cx="380" cy="486" r="3"/><circle cx="364" cy="221" r="3"/><circle cx="254" cy="463" r="3"/></g><circle cx="559" cy="78" r="3" fill="#bdbdbd"/><g fill="#2aadbc"><circle cx="296" cy="496" r="3"/><circle cx="148" cy="506" r="3"/><circle cx="429" cy="429" r="3"/><circle cx="423" cy="360" r="3"/><circle cx="277" cy="528" r="3"/><circle cx="303" cy="343" r="3"/></g><circle cx="489" cy="226" r="3" fill="#bdbdbd"/><g fill="#2aadbc"><circle cx="409" cy="358" r="3"/><circle cx="487" cy="334" r="3"/><circle cx="210" cy="75" r="3"/><circle cx="430" cy="222" r="3"/><circle cx="282" cy="441" r="3"/></g><circle cx="502" cy="91" r="3" fill="#bdbdbd"/><g fill="#2aadbc"><circle cx="357" cy="209" r="3"/><circle cx="294" cy="436" r="3"/><circle cx="367" cy="505" r="3"/><circle cx="365" cy="304" r="3"/><circle cx="417" cy="468" r="3"/></g><g fill="#bdbdbd"><circle cx="513" cy="83" r="3"/><circle cx="587" cy="115" r="3"/></g><g fill="#2aadbc"><circle cx="195" cy="457" r="3"/><circle cx="328" cy="79" r="3"/><circle cx="384" cy="354" r="3"/><circle cx="143" cy="471" r="3"/><circle cx="344" cy="313" r="3"/><circle cx="104" cy="481" r="3"/><circle cx="335" cy="324" r="3"/></g><g fill="#bdbdbd"><circle cx="479" cy="181" r="3"/><circle cx="584" cy="190" r="3"/></g><g fill="#2aadbc"><circle cx="393" cy="379" r="3"/><circle cx="230" cy="332" r="3"/><circle cx="317" cy="163" r="3"/></g><g fill="#bdbdbd"><circle cx="489" cy="250" r="3"/><circle cx="522" cy="237" r="3"/></g><g fill="#2aadbc"><circle cx="72" cy="465" r="3"/><circle cx="417" cy="268" r="3"/><circle cx="204" cy="419" r="3"/></g><circle cx="563" cy="259" r="3" fill="#bdbdbd"/><g fill="#2aadbc"><circle cx="280" cy="515" r="3"/><circle cx="229" cy="88" r="3"/><circle cx="384" cy="446" r="3"/><circle cx="244" cy="455" r="3"/><circle cx="284" cy="152" r="3"/><circle cx="437" cy="303" r="3"/><circle cx="35.9" cy="244" r="3"/><circle cx="439" cy="408" r="3"/><circle cx="272" cy="433" r="3"/><circle cx="291" cy="523" r="3"/></g><circle cx="589" cy="128" r="3" fill="#bdbdbd"/><g fill="#2aadbc"><circle cx="169" cy="464" r="3"/><circle cx="366" cy="409" r="3"/><circle cx="366" cy="374" r="3"/><circle cx="282" cy="286" r="3"/></g><circle cx="534" cy="155" r="3" fill="#bdbdbd"/><circle cx="375" cy="364" r="3" fill="#2aadbc"/><circle cx="550" cy="201" r="3" fill="#bdbdbd"/><g fill="#2aadbc"><circle cx="127" cy="487" r="3"/><circle cx="304" cy="444" r="3"/><circle cx="400" cy="333" r="3"/><circle cx="364" cy="175" r="3"/><circle cx="364" cy="267" r="3"/></g><circle cx="590" cy="142" r="3" fill="#bdbdbd"/><g fill="#2aadbc"><circle cx="403" cy="501" r="3"/><circle cx="448" cy="328" r="3"/><circle cx="153" cy="119" r="3"/><circle cx="440" cy="395" r="3"/><circle cx="431" cy="268" r="3"/><circle cx="270" cy="446" r="3"/><circle cx="202" cy="187" r="3"/><circle cx="388" cy="400" r="3"/><circle cx="484" cy="357" r="3"/><circle cx="101" cy="362" r="3"/><circle cx="260" cy="389" r="3"/><circle cx="208" cy="453" r="3"/><circle cx="488" cy="370" r="3"/></g><g fill="#bdbdbd"><circle cx="581" cy="62" r="3"/><circle cx="588" cy="234" r="3"/></g><g fill="#2aadbc"><circle cx="320" cy="500" r="3"/><circle cx="189" cy="85" r="3"/><circle cx="436" cy="362" r="3"/><circle cx="345" cy="348" r="3"/><circle cx="275" cy="322" r="3"/><circle cx="231" cy="459" r="3"/></g><circle cx="554" cy="223" r="3" fill="#bdbdbd"/><circle cx="134" cy="462" r="3" fill="#2aadbc"/><circle cx="598" cy="107" r="3" fill="#bdbdbd"/><circle cx="325" cy="534" r="3" fill="#2aadbc"/><circle cx="603" cy="147" r="3" fill="#bdbdbd"/><g fill="#2aadbc"><circle cx="328" cy="521" r="3"/><circle cx="131" cy="426" r="3"/><circle cx="403" cy="403" r="3"/><circle cx="427" cy="416" r="3"/><circle cx="358" cy="349" r="3"/><circle cx="416" cy="482" r="3"/><circle cx="353" cy="407" r="3"/></g><circle cx="581" cy="163" r="3" fill="#bdbdbd"/><g fill="#2aadbc"><circle cx="92" cy="436" r="3"/><circle cx="243" cy="408" r="3"/><circle cx="371" cy="386" r="3"/><circle cx="328" cy="433" r="3"/><circle cx="65.9" cy="442" r="3"/></g><circle cx="604" cy="161" r="3" fill="#bdbdbd"/><g fill="#2aadbc"><circle cx="444" cy="292" r="3"/><circle cx="496" cy="323" r="3"/><circle cx="477" cy="308" r="3"/><circle cx="388" cy="366" r="3"/><circle cx="192" cy="422" r="3"/><circle cx="410" cy="257" r="3"/><circle cx="307" cy="417" r="3"/><circle cx="348" cy="394" r="3"/><circle cx="414" cy="370" r="3"/><circle cx="182" cy="413" r="3"/><circle cx="336" cy="468" r="3"/><circle cx="305" cy="356" r="3"/><circle cx="426" cy="398" r="3"/></g><circle cx="499" cy="152" r="3" fill="#bdbdbd"/><g fill="#2aadbc"><circle cx="192" cy="374" r="3"/><circle cx="292" cy="449" r="3"/><circle cx="363" cy="291" r="3"/><circle cx="371" cy="279" r="3"/><circle cx="200" cy="315" r="3"/><circle cx="182" cy="461" r="3"/><circle cx="243" cy="331" r="3"/><circle cx="250" cy="368" r="3"/><circle cx="338" cy="266" r="3"/><circle cx="413" cy="395" r="3"/><circle cx="451" cy="280" r="3"/></g><circle cx="535" cy="235" r="3" fill="#bdbdbd"/><g fill="#2aadbc"><circle cx="350" cy="359" r="3"/><circle cx="202" cy="541" r="3"/></g><g fill="#bdbdbd"><circle cx="548" cy="235" r="3"/><circle cx="520" cy="48" r="3"/></g><g fill="#2aadbc"><circle cx="336" cy="114" r="3"/><circle cx="130" cy="474" r="3"/><circle cx="422" cy="324" r="3"/><circle cx="407" cy="432" r="3"/><circle cx="309" cy="383" r="3"/><circle cx="278" cy="407" r="3"/></g><circle cx="562" cy="235" r="3" fill="#bdbdbd"/><g fill="#2aadbc"><circle cx="297" cy="378" r="3"/><circle cx="272" cy="368" r="3"/></g><circle cx="547" cy="72" r="3" fill="#bdbdbd"/><g fill="#2aadbc"><circle cx="246" cy="395" r="3"/><circle cx="424" cy="279" r="3"/></g><circle cx="578" cy="137" r="3" fill="#bdbdbd"/><g fill="#2aadbc"><circle cx="417" cy="453" r="3"/><circle cx="217" cy="415" r="3"/><circle cx="464" cy="304" r="3"/><circle cx="241" cy="467" r="3"/><circle cx="257" cy="450" r="3"/><circle cx="397" cy="256" r="3"/><circle cx="235" cy="352" r="3"/><circle cx="363" cy="113" r="3"/></g><circle cx="572" cy="185" r="3" fill="#bdbdbd"/><g fill="#2aadbc"><circle cx="297" cy="317" r="3"/><circle cx="397" cy="210" r="3"/><circle cx="128" cy="439" r="3"/></g><circle cx="596" cy="195" r="3" fill="#bdbdbd"/><g fill="#2aadbc"><circle cx="404" cy="268" r="3"/><circle cx="397" cy="279" r="3"/></g><circle cx="527" cy="219" r="3" fill="#bdbdbd"/><g fill="#2aadbc"><circle cx="269" cy="506" r="3"/><circle cx="301" cy="306" r="3"/><circle cx="121" cy="417" r="3"/><circle cx="417" cy="222" r="3"/><circle cx="251" cy="476" r="3"/><circle cx="490" cy="310" r="3"/><circle cx="379" cy="376" r="3"/><circle cx="285" cy="489" r="3"/><circle cx="259" cy="362" r="3"/></g><circle cx="466" cy="176" r="3" fill="#bdbdbd"/><g fill="#2aadbc"><circle cx="252" cy="416" r="3"/><circle cx="345" cy="255" r="3"/></g><circle cx="595" cy="80" r="3" fill="#bdbdbd"/><g fill="#2aadbc"><circle cx="176" cy="391" r="3"/><circle cx="288" cy="386" r="3"/><circle cx="356" cy="125" r="3"/><circle cx="216" cy="476" r="3"/></g><g fill="#bdbdbd"><circle cx="601" cy="134" r="3"/><circle cx="468" cy="188" r="3"/></g><circle cx="319" cy="412" r="3" fill="#2aadbc"/><circle cx="570" cy="270" r="3" fill="#bdbdbd"/><g fill="#2aadbc"><circle cx="288" cy="536" r="3"/><circle cx="170" cy="416" r="3"/><circle cx="379" cy="499" r="3"/><circle cx="409" cy="323" r="3"/></g><circle cx="543" cy="45.6" r="3" fill="#bdbdbd"/><g fill="#2aadbc"><circle cx="111" cy="455" r="3"/><circle cx="278" cy="392" r="3"/><circle cx="416" cy="408" r="3"/><circle cx="233" cy="506" r="3"/><circle cx="312" cy="398" r="3"/><circle cx="282" cy="360" r="3"/></g><circle cx="560" cy="211" r="3" fill="#bdbdbd"/><g fill="#2aadbc"><circle cx="317" cy="312" r="3"/><circle cx="326" cy="301" r="3"/><circle cx="205" cy="466" r="3"/><circle cx="300" cy="392" r="3"/><circle cx="376" cy="291" r="3"/></g><circle cx="549" cy="259" r="3" fill="#bdbdbd"/><g fill="#2aadbc"><circle cx="473" cy="384" r="3"/><circle cx="391" cy="268" r="3"/><circle cx="443" cy="316" r="3"/><circle cx="80" cy="391" r="3"/><circle cx="384" cy="256" r="3"/></g><circle cx="556" cy="247" r="3" fill="#bdbdbd"/><g fill="#2aadbc"><circle cx="211" cy="394" r="3"/><circle cx="461" cy="330" r="3"/></g><circle cx="576" cy="123" r="3" fill="#bdbdbd"/><g fill="#2aadbc"><circle cx="471" cy="292" r="3"/><circle cx="275" cy="420" r="3"/><circle cx="330" cy="508" r="3"/><circle cx="264" cy="412" r="3"/><circle cx="452" cy="341" r="3"/><circle cx="362" cy="362" r="3"/><circle cx="236" cy="387" r="3"/><circle cx="379" cy="341" r="3"/><circle cx="222" cy="356" r="3"/></g><circle cx="527" cy="204" r="3" fill="#bdbdbd"/><g fill="#2aadbc"><circle cx="327" cy="335" r="3"/><circle cx="418" cy="290" r="3"/><circle cx="204" cy="303" r="3"/><circle cx="208" cy="406" r="3"/><circle cx="396" cy="321" r="3"/><circle cx="137" cy="449" r="3"/><circle cx="338" cy="243" r="3"/></g><circle cx="502" cy="249" r="3" fill="#bdbdbd"/><circle cx="492" cy="346" r="3" fill="#2aadbc"/><circle cx="592" cy="155" r="3" fill="#bdbdbd"/><g fill="#2aadbc"><circle cx="267" cy="399" r="3"/><circle cx="324" cy="174" r="3"/><circle cx="226" cy="343" r="3"/><circle cx="393" cy="412" r="3"/></g><g fill="#bdbdbd"><circle cx="595" cy="182" r="3"/><circle cx="529" cy="115" r="3"/></g><g fill="#2aadbc"><circle cx="270" cy="355" r="3"/><circle cx="298" cy="220" r="3"/><circle cx="172" cy="403" r="3"/><circle cx="262" cy="424" r="3"/><circle cx="322" cy="388" r="3"/><circle cx="302" cy="457" r="3"/><circle cx="227" cy="310" r="3"/><circle cx="155" cy="267" r="3"/><circle cx="331" cy="378" r="3"/><circle cx="466" cy="342" r="3"/><circle cx="284" cy="373" r="3"/><circle cx="401" cy="368" r="3"/><circle cx="469" cy="319" r="3"/><circle cx="503" cy="311" r="3"/><circle cx="474" cy="332" r="3"/></g><circle cx="491" cy="187" r="3" fill="#bdbdbd"/><g fill="#2aadbc"><circle cx="431" cy="291" r="3"/><circle cx="234" cy="446" r="3"/><circle cx="378" cy="244" r="3"/><circle cx="394" cy="438" r="3"/><circle cx="358" cy="278" r="3"/><circle cx="119" cy="527" r="3"/></g><circle cx="562" cy="104" r="3" fill="#bdbdbd"/><g fill="#2aadbc"><circle cx="264" cy="472" r="3"/><circle cx="140" cy="484" r="3"/></g><circle cx="536" cy="259" r="3" fill="#bdbdbd"/><circle cx="132" cy="523" r="3" fill="#2aadbc"/><circle cx="552" cy="112" r="3" fill="#bdbdbd"/><circle cx="411" cy="300" r="3" fill="#2aadbc"/><circle cx="581" cy="222" r="3" fill="#bdbdbd"/><circle cx="362" cy="327" r="3" fill="#2aadbc"/><circle cx="470" cy="115" r="3" fill="#bdbdbd"/><g fill="#2aadbc"><circle cx="331" cy="163" r="3"/><circle cx="317" cy="360" r="3"/><circle cx="371" cy="465" r="3"/><circle cx="458" cy="268" r="3"/><circle cx="140" cy="212" r="3"/></g><circle cx="458" cy="196" r="3" fill="#bdbdbd"/><g fill="#2aadbc"><circle cx="204" cy="337" r="3"/><circle cx="266" cy="302" r="3"/></g><circle cx="535" cy="169" r="3" fill="#bdbdbd"/><g fill="#2aadbc"><circle cx="444" cy="268" r="3"/><circle cx="404" cy="245" r="3"/><circle cx="278" cy="298" r="3"/><circle cx="431" cy="245" r="3"/><circle cx="357" cy="255" r="3"/><circle cx="210" cy="502" r="3"/></g><g fill="#bdbdbd"><circle cx="530" cy="271" r="3"/><circle cx="542" cy="247" r="3"/></g><circle cx="348" cy="463" r="3" fill="#2aadbc"/><circle cx="575" cy="235" r="3" fill="#bdbdbd"/><circle cx="330" cy="312" r="3" fill="#2aadbc"/><circle cx="579" cy="150" r="3" fill="#bdbdbd"/><circle cx="244" cy="344" r="3" fill="#2aadbc"/><circle cx="538" cy="196" r="3" fill="#bdbdbd"/><g fill="#2aadbc"><circle cx="452" cy="400" r="3"/><circle cx="257" cy="349" r="3"/></g><g fill="#bdbdbd"><circle cx="534" cy="284" r="3"/><circle cx="525" cy="88" r="3"/><circle cx="548" cy="86" r="3"/></g><g fill="#2aadbc"><circle cx="294" cy="283" r="3"/><circle cx="423" cy="211" r="3"/><circle cx="294" cy="365" r="3"/><circle cx="157" cy="336" r="3"/><circle cx="267" cy="342" r="3"/></g><g fill="#bdbdbd"><circle cx="540" cy="223" r="3"/><circle cx="524" cy="177" r="3"/><circle cx="469" cy="238" r="3"/></g><g fill="#2aadbc"><circle cx="313" cy="334" r="3"/><circle cx="435" cy="326" r="3"/></g><circle cx="515" cy="249" r="3" fill="#bdbdbd"/><g fill="#2aadbc"><circle cx="479" cy="344" r="3"/><circle cx="377" cy="268" r="3"/><circle cx="261" cy="375" r="3"/><circle cx="370" cy="316" r="3"/><circle cx="259" cy="437" r="3"/><circle cx="284" cy="198" r="3"/><circle cx="246" cy="442" r="3"/><circle cx="325" cy="220" r="3"/><circle cx="301" cy="531" r="3"/><circle cx="300" cy="330" r="3"/><circle cx="150" cy="445" r="3"/></g><circle cx="502" cy="224" r="3" fill="#bdbdbd"/><circle cx="267" cy="255" r="3" fill="#2aadbc"/><circle cx="540" cy="209" r="3" fill="#bdbdbd"/><circle cx="258" cy="198" r="3" fill="#2aadbc"/><circle cx="511" cy="70" r="3" fill="#bdbdbd"/><circle cx="341" cy="139" r="3" fill="#2aadbc"/><circle cx="598" cy="209" r="3" fill="#bdbdbd"/><g fill="#2aadbc"><circle cx="464" cy="280" r="3"/><circle cx="213" cy="346" r="3"/><circle cx="235" cy="201" r="3"/><circle cx="371" cy="352" r="3"/><circle cx="329" cy="347" r="3"/><circle cx="348" cy="325" r="3"/><circle cx="304" cy="209" r="3"/><circle cx="384" cy="210" r="3"/><circle cx="255" cy="257" r="3"/></g><circle cx="479" cy="93" r="3" fill="#bdbdbd"/><circle cx="273" cy="277" r="3" fill="#2aadbc"/><circle cx="569" cy="158" r="3" fill="#bdbdbd"/><g fill="#2aadbc"><circle cx="370" cy="186" r="3"/><circle cx="230" cy="364" r="3"/></g><circle cx="594" cy="222" r="3" fill="#bdbdbd"/><g fill="#2aadbc"><circle cx="289" cy="399" r="3"/><circle cx="182" cy="330" r="3"/><circle cx="319" cy="276" r="3"/><circle cx="255" cy="336" r="3"/><circle cx="366" cy="339" r="3"/><circle cx="198" cy="397" r="3"/><circle cx="224" cy="390" r="3"/><circle cx="353" cy="337" r="3"/></g><circle cx="583" cy="177" r="3" fill="#bdbdbd"/><g fill="#2aadbc"><circle cx="284" cy="175" r="3"/><circle cx="323" cy="322" r="3"/><circle cx="233" cy="398" r="3"/><circle cx="437" cy="256" r="3"/></g><circle cx="482" cy="238" r="3" fill="#bdbdbd"/><g fill="#2aadbc"><circle cx="357" cy="315" r="3"/><circle cx="337" cy="356" r="3"/><circle cx="182" cy="248" r="3"/><circle cx="292" cy="352" r="3"/><circle cx="210" cy="209" r="3"/><circle cx="309" cy="321" r="3"/><circle cx="169" cy="299" r="3"/><circle cx="249" cy="319" r="3"/></g><circle cx="495" cy="238" r="3" fill="#bdbdbd"/><g fill="#2aadbc"><circle cx="262" cy="315" r="3"/><circle cx="325" cy="243" r="3"/><circle cx="214" cy="381" r="3"/><circle cx="390" cy="245" r="3"/></g><circle cx="612" cy="126" r="3" fill="#bdbdbd"/><g fill="#2aadbc"><circle cx="290" cy="297" r="3"/><circle cx="451" cy="257" r="3"/><circle cx="195" cy="519" r="3"/><circle cx="249" cy="101" r="3"/><circle cx="403" cy="221" r="3"/></g><g fill="#bdbdbd"><circle cx="486" cy="147" r="3"/><circle cx="516" cy="110" r="3"/></g><g fill="#2aadbc"><circle cx="370" cy="210" r="3"/><circle cx="344" cy="163" r="3"/><circle cx="274" cy="309" r="3"/><circle cx="318" cy="254" r="3"/><circle cx="226" cy="484" r="3"/><circle cx="383" cy="317" r="3"/></g><circle cx="545" cy="59" r="3" fill="#bdbdbd"/><circle cx="199" cy="281" r="3" fill="#2aadbc"/><circle cx="476" cy="155" r="3" fill="#bdbdbd"/><g fill="#2aadbc"><circle cx="218" cy="462" r="3"/><circle cx="160" cy="407" r="3"/></g><circle cx="454" cy="171" r="3" fill="#bdbdbd"/><circle cx="430" cy="456" r="3" fill="#2aadbc"/><circle cx="514" cy="185" r="3" fill="#bdbdbd"/><g fill="#2aadbc"><circle cx="286" cy="273" r="3"/><circle cx="351" cy="220" r="3"/><circle cx="424" cy="257" r="3"/><circle cx="377" cy="198" r="3"/><circle cx="291" cy="339" r="3"/><circle cx="324" cy="152" r="3"/><circle cx="351" cy="174" r="3"/></g><circle cx="501" cy="78" r="3" fill="#bdbdbd"/><g fill="#2aadbc"><circle cx="168" cy="96" r="3"/><circle cx="351" cy="266" r="3"/></g><circle cx="416" cy="168" r="3" fill="#bdbdbd"/><g fill="#2aadbc"><circle cx="290" cy="412" r="3"/><circle cx="151" cy="397" r="3"/><circle cx="465" cy="432" r="3"/><circle cx="217" cy="231" r="3"/><circle cx="301" cy="293" r="3"/><circle cx="292" cy="254" r="3"/><circle cx="183" cy="365" r="3"/><circle cx="251" cy="187" r="3"/><circle cx="214" cy="428" r="3"/><circle cx="336" cy="91" r="3"/><circle cx="157" cy="468" r="3"/><circle cx="189" cy="387" r="3"/><circle cx="278" cy="232" r="3"/></g><circle cx="553" cy="126" r="3" fill="#bdbdbd"/><circle cx="378" cy="304" r="3" fill="#2aadbc"/><g fill="#bdbdbd"><circle cx="558" cy="166" r="3"/><circle cx="543" cy="271" r="3"/><circle cx="507" cy="285" r="3"/></g><g fill="#2aadbc"><circle cx="340" cy="336" r="3"/><circle cx="125" cy="404" r="3"/></g><circle cx="531" cy="40" r="3" fill="#bdbdbd"/><g fill="#2aadbc"><circle cx="266" cy="56" r="3"/><circle cx="226" cy="377" r="3"/><circle cx="417" cy="245" r="3"/></g><circle cx="546" cy="161" r="3" fill="#bdbdbd"/><circle cx="249" cy="382" r="3" fill="#2aadbc"/><circle cx="462" cy="227" r="3" fill="#bdbdbd"/><g fill="#2aadbc"><circle cx="377" cy="153" r="3"/><circle cx="209" cy="359" r="3"/><circle cx="371" cy="255" r="3"/></g><circle cx="557" cy="153" r="3" fill="#bdbdbd"/><circle cx="257" cy="293" r="3" fill="#2aadbc"/><circle cx="480" cy="195" r="3" fill="#bdbdbd"/><g fill="#2aadbc"><circle cx="310" cy="152" r="3"/><circle cx="195" cy="410" r="3"/><circle cx="413" cy="335" r="3"/><circle cx="352" cy="302" r="3"/><circle cx="121" cy="465" r="3"/><circle cx="277" cy="335" r="3"/><circle cx="331" cy="254" r="3"/></g><circle cx="511" cy="158" r="3" fill="#bdbdbd"/><g fill="#2aadbc"><circle cx="90" cy="400" r="3"/><circle cx="105" cy="349" r="3"/><circle cx="341" cy="79" r="3"/></g><g fill="#bdbdbd"><circle cx="527" cy="102" r="3"/><circle cx="522" cy="260" r="3"/></g><circle cx="205" cy="174" r="3" fill="#2aadbc"/><circle cx="544" cy="147" r="3" fill="#bdbdbd"/><g fill="#2aadbc"><circle cx="312" cy="243" r="3"/><circle cx="371" cy="233" r="3"/><circle cx="454" cy="440" r="3"/><circle cx="344" cy="277" r="3"/></g><circle cx="557" cy="64" r="3" fill="#bdbdbd"/><g fill="#2aadbc"><circle cx="356" cy="102" r="3"/><circle cx="85" cy="462" r="3"/></g><g fill="#bdbdbd"><circle cx="492" cy="200" r="3"/><circle cx="523" cy="163" r="3"/><circle cx="448" cy="204" r="3"/></g><g fill="#2aadbc"><circle cx="305" cy="278" r="3"/><circle cx="364" cy="244" r="3"/><circle cx="250" cy="429" r="3"/></g><circle cx="536" cy="182" r="3" fill="#bdbdbd"/><g fill="#2aadbc"><circle cx="276" cy="265" r="3"/><circle cx="185" cy="400" r="3"/></g><circle cx="429" cy="160" r="3" fill="#bdbdbd"/><g fill="#2aadbc"><circle cx="140" cy="436" r="3"/><circle cx="303" cy="140" r="3"/></g><circle cx="451" cy="144" r="3" fill="#bdbdbd"/><g fill="#2aadbc"><circle cx="377" cy="221" r="3"/><circle cx="325" cy="265" r="3"/><circle cx="331" cy="209" r="3"/><circle cx="124" cy="452" r="3"/><circle cx="323" cy="115" r="3"/><circle cx="312" cy="287" r="3"/></g><circle cx="547" cy="174" r="3" fill="#bdbdbd"/><g fill="#2aadbc"><circle cx="275" cy="127" r="3"/><circle cx="392" cy="344" r="3"/><circle cx="391" cy="175" r="3"/><circle cx="177" cy="197" r="3"/><circle cx="269" cy="116" r="3"/><circle cx="131" cy="343" r="3"/><circle cx="92" cy="352" r="3"/><circle cx="378" cy="140" r="3"/><circle cx="132" cy="265" r="3"/><circle cx="243" cy="260" r="3"/><circle cx="262" cy="127" r="3"/><circle cx="217" cy="266" r="3"/></g><circle cx="500" cy="166" r="3" fill="#bdbdbd"/><g fill="#2aadbc"><circle cx="201" cy="384" r="3"/><circle cx="397" cy="233" r="3"/><circle cx="238" cy="373" r="3"/></g><circle cx="444" cy="91" r="3" fill="#bdbdbd"/><g fill="#2aadbc"><circle cx="289" cy="104" r="3"/><circle cx="98" cy="459" r="3"/></g><g fill="#bdbdbd"><circle cx="444" cy="178" r="3"/><circle cx="455" cy="183" r="3"/></g><g fill="#2aadbc"><circle cx="191" cy="306" r="3"/><circle cx="34.9" cy="341" r="3"/><circle cx="287" cy="326" r="3"/><circle cx="259" cy="245" r="3"/><circle cx="329" cy="103" r="3"/></g><circle cx="570" cy="171" r="3" fill="#bdbdbd"/><g fill="#2aadbc"><circle cx="186" cy="283" r="3"/><circle cx="337" cy="151" r="3"/><circle cx="437" cy="233" r="3"/><circle cx="299" cy="243" r="3"/><circle cx="225" cy="276" r="3"/></g><circle cx="489" cy="174" r="3" fill="#bdbdbd"/><g fill="#2aadbc"><circle cx="271" cy="221" r="3"/><circle cx="200" cy="492" r="3"/><circle cx="343" cy="102" r="3"/><circle cx="344" cy="209" r="3"/><circle cx="451" cy="303" r="3"/></g><circle cx="503" cy="193" r="3" fill="#bdbdbd"/><circle cx="265" cy="232" r="3" fill="#2aadbc"/><g fill="#bdbdbd"><circle cx="504" cy="206" r="3"/><circle cx="421" cy="180" r="3"/></g><g fill="#2aadbc"><circle cx="338" cy="302" r="3"/><circle cx="311" cy="175" r="3"/></g><circle cx="501" cy="179" r="3" fill="#bdbdbd"/><g fill="#2aadbc"><circle cx="255" cy="114" r="3"/><circle cx="174" cy="286" r="3"/><circle cx="243" cy="224" r="3"/><circle cx="317" cy="186" r="3"/><circle cx="223" cy="497" r="3"/><circle cx="311" cy="197" r="3"/><circle cx="122" cy="514" r="3"/><circle cx="179" cy="378" r="3"/><circle cx="200" cy="349" r="3"/><circle cx="178" cy="308" r="3"/><circle cx="182" cy="295" r="3"/></g><circle cx="567" cy="42.8" r="3" fill="#bdbdbd"/><g fill="#2aadbc"><circle cx="239" cy="54" r="3"/><circle cx="350" cy="289" r="3"/><circle cx="243" cy="515" r="3"/><circle cx="431" cy="349" r="3"/></g><circle cx="490" cy="86" r="3" fill="#bdbdbd"/><g fill="#2aadbc"><circle cx="89" cy="449" r="3"/><circle cx="102" cy="446" r="3"/><circle cx="318" cy="232" r="3"/><circle cx="357" cy="186" r="3"/></g><circle cx="474" cy="141" r="3" fill="#bdbdbd"/><g fill="#2aadbc"><circle cx="222" cy="288" r="3"/><circle cx="66" cy="358" r="3"/><circle cx="272" cy="242" r="3"/><circle cx="183" cy="231" r="3"/><circle cx="337" cy="220" r="3"/><circle cx="297" cy="197" r="3"/><circle cx="305" cy="232" r="3"/><circle cx="343" cy="125" r="3"/></g><circle cx="456" cy="215" r="3" fill="#bdbdbd"/><g fill="#2aadbc"><circle cx="229" cy="263" r="3"/><circle cx="297" cy="152" r="3"/><circle cx="461" cy="379" r="3"/></g><circle cx="465" cy="163" r="3" fill="#bdbdbd"/><circle cx="252" cy="233" r="3" fill="#2aadbc"/><circle cx="481" cy="209" r="3" fill="#bdbdbd"/><g fill="#2aadbc"><circle cx="315" cy="80" r="3"/><circle cx="269" cy="290" r="3"/><circle cx="234" cy="286" r="3"/><circle cx="218" cy="300" r="3"/><circle cx="201" cy="248" r="3"/></g><g fill="#bdbdbd"><circle cx="476" cy="66.9" r="3"/><circle cx="477" cy="168" r="3"/></g><g fill="#2aadbc"><circle cx="170" cy="250" r="3"/><circle cx="239" cy="420" r="3"/><circle cx="260" cy="280" r="3"/><circle cx="247" cy="283" r="3"/><circle cx="235" cy="100" r="3"/><circle cx="304" cy="254" r="3"/><circle cx="91" cy="485" r="3"/><circle cx="384" cy="233" r="3"/><circle cx="358" cy="232" r="3"/><circle cx="216" cy="87" r="3"/><circle cx="108" cy="468" r="3"/><circle cx="285" cy="242" r="3"/><circle cx="69" cy="429" r="3"/><circle cx="177" cy="273" r="3"/><circle cx="311" cy="220" r="3"/><circle cx="350" cy="113" r="3"/><circle cx="304" cy="186" r="3"/><circle cx="324" cy="197" r="3"/><circle cx="277" cy="209" r="3"/><circle cx="104" cy="314" r="3"/></g><circle cx="485" cy="134" r="3" fill="#bdbdbd"/><g fill="#2aadbc"><circle cx="248" cy="212" r="3"/><circle cx="205" cy="371" r="3"/><circle cx="213" cy="312" r="3"/><circle cx="367" cy="133" r="3"/><circle cx="253" cy="306" r="3"/></g><circle cx="497" cy="139" r="3" fill="#bdbdbd"/><g fill="#2aadbc"><circle cx="264" cy="163" r="3"/><circle cx="198" cy="213" r="3"/><circle cx="397" cy="186" r="3"/><circle cx="114" cy="236" r="3"/><circle cx="303" cy="127" r="3"/><circle cx="315" cy="140" r="3"/></g><circle cx="488" cy="160" r="3" fill="#bdbdbd"/><g fill="#2aadbc"><circle cx="384" cy="187" r="3"/><circle cx="233" cy="215" r="3"/><circle cx="247" cy="247" r="3"/><circle cx="101" cy="241" r="3"/><circle cx="114" cy="442" r="3"/><circle cx="187" cy="317" r="3"/><circle cx="183" cy="73" r="3"/></g><g fill="#bdbdbd"><circle cx="426" cy="133" r="3"/><circle cx="469" cy="215" r="3"/></g><g fill="#2aadbc"><circle cx="307" cy="68.9" r="3"/><circle cx="364" cy="197" r="3"/><circle cx="292" cy="231" r="3"/><circle cx="269" cy="92" r="3"/><circle cx="410" cy="210" r="3"/><circle cx="243" cy="296" r="3"/><circle cx="313" cy="56.9" r="3"/><circle cx="195" cy="258" r="3"/></g><circle cx="465" cy="75" r="3" fill="#bdbdbd"/><g fill="#2aadbc"><circle cx="280" cy="252" r="3"/><circle cx="190" cy="483" r="3"/><circle cx="147" cy="246" r="3"/></g><g fill="#bdbdbd"><circle cx="515" cy="198" r="3"/><circle cx="433" cy="99" r="3"/><circle cx="518" cy="123" r="3"/></g><g fill="#2aadbc"><circle cx="152" cy="207" r="3"/><circle cx="148" cy="327" r="3"/><circle cx="74" cy="333" r="3"/><circle cx="328" cy="139" r="3"/><circle cx="311" cy="265" r="3"/></g><g fill="#bdbdbd"><circle cx="449" cy="131" r="3"/><circle cx="497" cy="50.9" r="3"/><circle cx="433" cy="186" r="3"/></g><circle cx="185" cy="218" r="3" fill="#2aadbc"/><circle cx="439" cy="139" r="3" fill="#bdbdbd"/><g fill="#2aadbc"><circle cx="289" cy="127" r="3"/><circle cx="40" cy="364" r="3"/><circle cx="73" cy="292" r="3"/><circle cx="252" cy="136" r="3"/><circle cx="222" cy="254" r="3"/><circle cx="124" cy="283" r="3"/><circle cx="144" cy="423" r="3"/><circle cx="322" cy="91" r="3"/><circle cx="351" cy="197" r="3"/></g><g fill="#bdbdbd"><circle cx="593" cy="169" r="3"/><circle cx="494" cy="24" r="3"/></g><g fill="#2aadbc"><circle cx="169" cy="333" r="3"/><circle cx="143" cy="272" r="3"/><circle cx="330" cy="186" r="3"/><circle cx="284" cy="220" r="3"/><circle cx="312" cy="299" r="3"/><circle cx="108" cy="420" r="3"/></g><g fill="#bdbdbd"><circle cx="454" cy="83" r="3"/><circle cx="499" cy="64" r="3"/></g><g fill="#2aadbc"><circle cx="214" cy="183" r="3"/><circle cx="291" cy="186" r="3"/><circle cx="209" cy="256" r="3"/></g><circle cx="417" cy="155" r="3" fill="#bdbdbd"/><g fill="#2aadbc"><circle cx="309" cy="92" r="3"/><circle cx="247" cy="124" r="3"/><circle cx="172" cy="237" r="3"/><circle cx="344" cy="231" r="3"/><circle cx="161" cy="359" r="3"/><circle cx="240" cy="308" r="3"/><circle cx="257" cy="152" r="3"/></g><g fill="#bdbdbd"><circle cx="424" cy="120" r="3"/><circle cx="428" cy="147" r="3"/></g><g fill="#2aadbc"><circle cx="337" cy="197" r="3"/><circle cx="174" cy="108" r="3"/></g><circle cx="493" cy="214" r="3" fill="#bdbdbd"/><g fill="#2aadbc"><circle cx="175" cy="85" r="3"/><circle cx="290" cy="140" r="3"/></g><g fill="#bdbdbd"><circle cx="453" cy="157" r="3"/><circle cx="416" cy="141" r="3"/><circle cx="440" cy="152" r="3"/></g><g fill="#2aadbc"><circle cx="344" cy="186" r="3"/><circle cx="297" cy="175" r="3"/><circle cx="208" cy="291" r="3"/><circle cx="355" cy="138" r="3"/></g><circle cx="514" cy="96" r="3" fill="#bdbdbd"/><g fill="#2aadbc"><circle cx="264" cy="187" r="3"/><circle cx="257" cy="221" r="3"/><circle cx="390" cy="198" r="3"/><circle cx="233" cy="123" r="3"/></g><circle cx="520" cy="137" r="3" fill="#bdbdbd"/><g fill="#2aadbc"><circle cx="236" cy="319" r="3"/><circle cx="245" cy="146" r="3"/></g><circle cx="431" cy="173" r="3" fill="#bdbdbd"/><g fill="#2aadbc"><circle cx="190" cy="271" r="3"/><circle cx="157" cy="420" r="3"/><circle cx="204" cy="268" r="3"/><circle cx="309" cy="115" r="3"/><circle cx="324" cy="287" r="3"/><circle cx="282" cy="93" r="3"/><circle cx="277" cy="81" r="3"/><circle cx="182" cy="261" r="3"/></g><g fill="#bdbdbd"><circle cx="491" cy="99" r="3"/><circle cx="508" cy="131" r="3"/></g><g fill="#2aadbc"><circle cx="252" cy="55" r="3"/><circle cx="143" cy="305" r="3"/></g><g fill="#bdbdbd"><circle cx="474" cy="53.6" r="3"/><circle cx="463" cy="149" r="3"/></g><g fill="#2aadbc"><circle cx="99" cy="508" r="3"/><circle cx="212" cy="196" r="3"/><circle cx="63" cy="455" r="3"/><circle cx="144" cy="185" r="3"/><circle cx="317" cy="126" r="3"/></g><circle cx="493" cy="113" r="3" fill="#bdbdbd"/><circle cx="351" cy="151" r="3" fill="#2aadbc"/><circle cx="443" cy="16.9" r="3" fill="#bdbdbd"/><g fill="#2aadbc"><circle cx="213" cy="244" r="3"/><circle cx="165" cy="346" r="3"/></g><circle cx="458" cy="109" r="3" fill="#bdbdbd"/><g fill="#2aadbc"><circle cx="297" cy="266" r="3"/><circle cx="302" cy="104" r="3"/><circle cx="168" cy="263" r="3"/><circle cx="282" cy="60" r="3"/><circle cx="238" cy="188" r="3"/><circle cx="334" cy="67" r="3"/><circle cx="213" cy="278" r="3"/><circle cx="209" cy="160" r="3"/><circle cx="195" cy="327" r="3"/><circle cx="227" cy="111" r="3"/><circle cx="354" cy="78" r="3"/><circle cx="61" cy="290" r="3"/><circle cx="277" cy="140" r="3"/><circle cx="270" cy="198" r="3"/><circle cx="220" cy="122" r="3"/><circle cx="264" cy="79" r="3"/><circle cx="200" cy="200" r="3"/><circle cx="139" cy="317" r="3"/><circle cx="118" cy="209" r="3"/><circle cx="330" cy="126" r="3"/><circle cx="275" cy="104" r="3"/><circle cx="370" cy="164" r="3"/></g><circle cx="408" cy="88" r="3" fill="#bdbdbd"/><circle cx="250" cy="78" r="3" fill="#2aadbc"/><g fill="#bdbdbd"><circle cx="442" cy="165" r="3"/><circle cx="462" cy="48" r="3"/></g><circle cx="78.9" cy="355" r="3" fill="#2aadbc"/><g fill="#bdbdbd"><circle cx="456" cy="96" r="3"/><circle cx="414" cy="128" r="3"/></g><g fill="#2aadbc"><circle cx="161" cy="228" r="3"/><circle cx="232" cy="146" r="3"/><circle cx="118" cy="429" r="3"/><circle cx="196" cy="74" r="3"/><circle cx="110" cy="372" r="3"/></g><circle cx="453" cy="69" r="3" fill="#bdbdbd"/><g fill="#2aadbc"><circle cx="160" cy="324" r="3"/><circle cx="23" cy="380" r="3"/><circle cx="124" cy="243" r="3"/></g><circle cx="538" cy="94" r="3" fill="#bdbdbd"/><g fill="#2aadbc"><circle cx="245" cy="199" r="3"/><circle cx="296" cy="116" r="3"/><circle cx="262" cy="103" r="3"/></g><circle cx="398" cy="96" r="3" fill="#bdbdbd"/><circle cx="147" cy="107" r="3" fill="#2aadbc"/><circle cx="481" cy="107" r="3" fill="#bdbdbd"/><circle cx="227" cy="181" r="3" fill="#2aadbc"/><circle cx="478" cy="80" r="3" fill="#bdbdbd"/><g fill="#2aadbc"><circle cx="135" cy="330" r="3"/><circle cx="165" cy="276" r="3"/><circle cx="99" cy="410" r="3"/><circle cx="151" cy="280" r="3"/></g><circle cx="462" cy="136" r="3" fill="#bdbdbd"/><g fill="#2aadbc"><circle cx="257" cy="175" r="3"/><circle cx="86" cy="413" r="3"/><circle cx="134" cy="413" r="3"/></g><circle cx="401" cy="123" r="3" fill="#bdbdbd"/><circle cx="349" cy="90" r="3" fill="#2aadbc"/><circle cx="391" cy="71" r="3" fill="#bdbdbd"/><circle cx="159" cy="241" r="3" fill="#2aadbc"/><circle cx="463" cy="61" r="3" fill="#bdbdbd"/><g fill="#2aadbc"><circle cx="290" cy="163" r="3"/><circle cx="110" cy="262" r="3"/><circle cx="179" cy="184" r="3"/><circle cx="132" cy="378" r="3"/><circle cx="138" cy="401" r="3"/><circle cx="99" cy="254" r="3"/><circle cx="187" cy="353" r="3"/><circle cx="194" cy="226" r="3"/><circle cx="264" cy="140" r="3"/><circle cx="193" cy="121" r="3"/><circle cx="122" cy="257" r="3"/></g><circle cx="510" cy="56" r="3" fill="#bdbdbd"/><g fill="#2aadbc"><circle cx="208" cy="324" r="3"/><circle cx="301" cy="81" r="3"/><circle cx="321" cy="68" r="3"/><circle cx="243" cy="176" r="3"/><circle cx="174" cy="356" r="3"/></g><circle cx="442" cy="77" r="3" fill="#bdbdbd"/><g fill="#2aadbc"><circle cx="165" cy="311" r="3"/><circle cx="141" cy="387" r="3"/><circle cx="97" cy="193" r="3"/></g><circle cx="393" cy="84" r="3" fill="#bdbdbd"/><g fill="#2aadbc"><circle cx="157" cy="372" r="3"/><circle cx="264" cy="210" r="3"/></g><circle cx="440" cy="64" r="3" fill="#bdbdbd"/><g fill="#2aadbc"><circle cx="270" cy="152" r="3"/><circle cx="120" cy="271" r="3"/><circle cx="160" cy="107" r="3"/><circle cx="173" cy="451" r="3"/><circle cx="337" cy="288" r="3"/><circle cx="75" cy="368" r="3"/><circle cx="122" cy="333" r="3"/></g><circle cx="410" cy="101" r="3" fill="#bdbdbd"/><g fill="#2aadbc"><circle cx="187" cy="205" r="3"/><circle cx="82" cy="475" r="3"/><circle cx="165" cy="202" r="3"/><circle cx="156" cy="302" r="3"/><circle cx="317" cy="209" r="3"/><circle cx="129" cy="391" r="3"/><circle cx="295" cy="62.7" r="3"/><circle cx="146" cy="172" r="3"/><circle cx="364" cy="151" r="3"/><circle cx="160" cy="289" r="3"/><circle cx="304" cy="163" r="3"/><circle cx="271" cy="68" r="3"/><circle cx="191" cy="238" r="3"/><circle cx="234" cy="251" r="3"/><circle cx="225" cy="192" r="3"/><circle cx="178" cy="343" r="3"/><circle cx="58" cy="384" r="3"/><circle cx="134" cy="251" r="3"/><circle cx="291" cy="208" r="3"/><circle cx="140" cy="352" r="3"/><circle cx="239" cy="237" r="3"/></g><circle cx="422" cy="107" r="3" fill="#bdbdbd"/><g fill="#2aadbc"><circle cx="238" cy="273" r="3"/><circle cx="192" cy="179" r="3"/><circle cx="204" cy="235" r="3"/><circle cx="116" cy="222" r="3"/></g><circle cx="460" cy="123" r="3" fill="#bdbdbd"/><g fill="#2aadbc"><circle cx="77" cy="404" r="3"/><circle cx="97" cy="374" r="3"/></g><circle cx="506" cy="118" r="3" fill="#bdbdbd"/><g fill="#2aadbc"><circle cx="289" cy="75" r="3"/><circle cx="191" cy="339" r="3"/><circle cx="245" cy="66" r="3"/><circle cx="149" cy="81" r="3"/><circle cx="100" cy="292" r="3"/><circle cx="218" cy="170" r="3"/><circle cx="126" cy="320" r="3"/><circle cx="157" cy="70" r="3"/><circle cx="270" cy="175" r="3"/><circle cx="112" cy="288" r="3"/><circle cx="125" cy="156" r="3"/><circle cx="218" cy="64" r="3"/></g><circle cx="380" cy="79" r="3" fill="#bdbdbd"/><g fill="#2aadbc"><circle cx="69" cy="304" r="3"/><circle cx="175" cy="209" r="3"/><circle cx="152" cy="349" r="3"/><circle cx="295" cy="93" r="3"/><circle cx="222" cy="205" r="3"/><circle cx="201" cy="109" r="3"/><circle cx="173" cy="320" r="3"/><circle cx="222" cy="99" r="3"/><circle cx="251" cy="270" r="3"/><circle cx="121" cy="298" r="3"/><circle cx="232" cy="168" r="3"/></g><circle cx="430" cy="72" r="3" fill="#bdbdbd"/><g fill="#2aadbc"><circle cx="167" cy="189" r="3"/><circle cx="250" cy="164" r="3"/><circle cx="277" cy="186" r="3"/></g><circle cx="539" cy="107" r="3" fill="#bdbdbd"/><g fill="#2aadbc"><circle cx="126" cy="230" r="3"/><circle cx="41" cy="400" r="3"/></g><circle cx="447" cy="117" r="3" fill="#bdbdbd"/><g fill="#2aadbc"><circle cx="118" cy="346" r="3"/><circle cx="196" cy="154" r="3"/><circle cx="156" cy="180" r="3"/></g><circle cx="412" cy="54" r="3" fill="#bdbdbd"/><g fill="#2aadbc"><circle cx="133" cy="295" r="3"/><circle cx="195" cy="293" r="3"/><circle cx="78" cy="269" r="3"/><circle cx="95" cy="472" r="3"/><circle cx="316" cy="103" r="3"/><circle cx="207" cy="222" r="3"/></g><circle cx="403" cy="136" r="3" fill="#bdbdbd"/><g fill="#2aadbc"><circle cx="109" cy="336" r="3"/><circle cx="44" cy="351" r="3"/></g><circle cx="468" cy="102" r="3" fill="#bdbdbd"/><g fill="#2aadbc"><circle cx="170" cy="72" r="3"/><circle cx="143" cy="339" r="3"/><circle cx="237" cy="77" r="3"/><circle cx="112" cy="407" r="3"/><circle cx="277" cy="163" r="3"/><circle cx="105" cy="214" r="3"/><circle cx="136" cy="365" r="3"/><circle cx="177" cy="61" r="3"/><circle cx="38.7" cy="302" r="3"/></g><circle cx="488" cy="72" r="3" fill="#bdbdbd"/><g fill="#2aadbc"><circle cx="103" cy="227" r="3"/><circle cx="87" cy="329" r="3"/><circle cx="52.9" cy="361" r="3"/><circle cx="110" cy="99" r="3"/></g><circle cx="483" cy="32" r="3" fill="#bdbdbd"/><g fill="#2aadbc"><circle cx="231" cy="65" r="3"/><circle cx="150" cy="146" r="3"/><circle cx="20.9" cy="292" r="3"/><circle cx="180" cy="120" r="3"/></g><g fill="#bdbdbd"><circle cx="436" cy="51.7" r="3"/><circle cx="490" cy="11.4" r="3"/><circle cx="486" cy="58.9" r="3"/></g><circle cx="54" cy="397" r="3" fill="#2aadbc"/><circle cx="423" cy="46" r="3" fill="#bdbdbd"/><g fill="#2aadbc"><circle cx="159" cy="167" r="3"/><circle cx="116" cy="394" r="3"/><circle cx="226" cy="240" r="3"/><circle cx="222" cy="322" r="3"/><circle cx="138" cy="282" r="3"/><circle cx="81" cy="225" r="3"/><circle cx="91" cy="233" r="3"/><circle cx="130" cy="204" r="3"/><circle cx="102" cy="153" r="3"/><circle cx="182" cy="171" r="3"/><circle cx="239" cy="157" r="3"/></g><circle cx="496" cy="37.5" r="3" fill="#bdbdbd"/><g fill="#2aadbc"><circle cx="136" cy="164" r="3"/><circle cx="224" cy="158" r="3"/><circle cx="69" cy="141" r="3"/><circle cx="73" cy="416" r="3"/><circle cx="71" cy="128" r="3"/></g><circle cx="519" cy="34.9" r="3" fill="#bdbdbd"/><g fill="#2aadbc"><circle cx="84" cy="378" r="3"/><circle cx="127" cy="355" r="3"/><circle cx="67" cy="394" r="3"/><circle cx="146" cy="292" r="3"/></g><circle cx="506" cy="29.5" r="3" fill="#bdbdbd"/><g fill="#2aadbc"><circle cx="123" cy="368" r="3"/><circle cx="108" cy="113" r="3"/><circle cx="32" cy="267" r="3"/><circle cx="100" cy="326" r="3"/><circle cx="149" cy="233" r="3"/><circle cx="136" cy="238" r="3"/><circle cx="56.9" cy="348" r="3"/><circle cx="223" cy="76" r="3"/></g><g fill="#bdbdbd"><circle cx="521" cy="150" r="3"/><circle cx="380" cy="92" r="3"/></g><g fill="#2aadbc"><circle cx="214" cy="110" r="3"/><circle cx="69.9" cy="345" r="3"/><circle cx="36" cy="377" r="3"/><circle cx="96" cy="339" r="3"/><circle cx="194" cy="166" r="3"/><circle cx="26.9" cy="367" r="3"/><circle cx="17.4" cy="355" r="3"/><circle cx="205" cy="145" r="3"/><circle cx="12" cy="329" r="3"/><circle cx="256" cy="91" r="3"/></g><circle cx="421" cy="94" r="3" fill="#bdbdbd"/><g fill="#2aadbc"><circle cx="187" cy="145" r="3"/><circle cx="384" cy="164" r="3"/><circle cx="144" cy="258" r="3"/><circle cx="97" cy="104" r="3"/><circle cx="208" cy="98" r="3"/><circle cx="189" cy="192" r="3"/><circle cx="239" cy="135" r="3"/></g><circle cx="467" cy="88" r="3" fill="#bdbdbd"/><g fill="#2aadbc"><circle cx="148" cy="159" r="3"/><circle cx="174" cy="149" r="3"/><circle cx="95" cy="304" r="3"/></g><circle cx="403" cy="76" r="3" fill="#bdbdbd"/><g fill="#2aadbc"><circle cx="51" cy="265" r="3"/><circle cx="97" cy="266" r="3"/><circle cx="55.8" cy="277" r="3"/><circle cx="71" cy="381" r="3"/></g><circle cx="431" cy="85" r="3" fill="#bdbdbd"/><g fill="#2aadbc"><circle cx="25.6" cy="305" r="3"/><circle cx="79" cy="238" r="3"/><circle cx="173" cy="223" r="3"/><circle cx="258" cy="67" r="3"/><circle cx="113" cy="323" r="3"/></g><circle cx="472" cy="40" r="3" fill="#bdbdbd"/><g fill="#2aadbc"><circle cx="220" cy="218" r="3"/><circle cx="184" cy="157" r="3"/><circle cx="86" cy="259" r="3"/><circle cx="119" cy="381" r="3"/><circle cx="91" cy="316" r="3"/><circle cx="171" cy="162" r="3"/><circle cx="172" cy="131" r="3"/></g><circle cx="409" cy="27.8" r="3" fill="#bdbdbd"/><circle cx="30.9" cy="354" r="3" fill="#2aadbc"/><circle cx="437" cy="125" r="3" fill="#bdbdbd"/><circle cx="204" cy="63" r="3" fill="#2aadbc"/><circle cx="421" cy="33" r="3" fill="#bdbdbd"/><g fill="#2aadbc"><circle cx="191" cy="62" r="3"/><circle cx="166" cy="119" r="3"/><circle cx="84" cy="198" r="3"/><circle cx="106" cy="384" r="3"/><circle cx="226" cy="134" r="3"/><circle cx="186" cy="131" r="3"/><circle cx="113" cy="161" r="3"/><circle cx="86" cy="294" r="3"/><circle cx="109" cy="188" r="3"/><circle cx="81.9" cy="281" r="3"/><circle cx="218" cy="146" r="3"/></g><circle cx="445" cy="30" r="3" fill="#bdbdbd"/><g fill="#2aadbc"><circle cx="93" cy="387" r="3"/><circle cx="64" cy="267" r="3"/><circle cx="199" cy="133" r="3"/></g><circle cx="400" cy="109" r="3" fill="#bdbdbd"/><circle cx="58" cy="312" r="3" fill="#2aadbc"/><circle cx="389" cy="117" r="3" fill="#bdbdbd"/><g fill="#2aadbc"><circle cx="83" cy="342" r="3"/><circle cx="169" cy="175" r="3"/><circle cx="67" cy="243" r="3"/><circle cx="56" cy="235" r="3"/><circle cx="154" cy="95" r="3"/><circle cx="243" cy="89" r="3"/><circle cx="12.2" cy="303" r="3"/><circle cx="150" cy="220" r="3"/><circle cx="162" cy="215" r="3"/><circle cx="83" cy="123" r="3"/><circle cx="47.8" cy="338" r="3"/><circle cx="212" cy="134" r="3"/></g><circle cx="455" cy="22" r="3" fill="#bdbdbd"/><g fill="#2aadbc"><circle cx="27.7" cy="184" r="3"/><circle cx="104" cy="139" r="3"/><circle cx="64.9" cy="323" r="3"/><circle cx="111" cy="174" r="3"/></g><circle cx="414" cy="68" r="3" fill="#bdbdbd"/><circle cx="38.9" cy="328" r="3" fill="#2aadbc"/><circle cx="412" cy="115" r="3" fill="#bdbdbd"/><g fill="#2aadbc"><circle cx="94" cy="131" r="3"/><circle cx="128" cy="217" r="3"/></g><circle cx="434" cy="38" r="3" fill="#bdbdbd"/><circle cx="152" cy="314" r="3" fill="#2aadbc"/><g fill="#bdbdbd"><circle cx="485" cy="45.5" r="3"/><circle cx="468" cy="27.5" r="3"/></g><g fill="#2aadbc"><circle cx="38" cy="192" r="3"/><circle cx="40" cy="179" r="3"/><circle cx="89" cy="246" r="3"/><circle cx="107" cy="301" r="3"/><circle cx="49" cy="200" r="3"/><circle cx="119" cy="196" r="3"/><circle cx="95" cy="206" r="3"/><circle cx="43" cy="233" r="3"/><circle cx="202" cy="86" r="3"/><circle cx="154" cy="193" r="3"/></g><g fill="#bdbdbd"><circle cx="472" cy="128" r="3"/><circle cx="405" cy="149" r="3"/></g><g fill="#2aadbc"><circle cx="138" cy="225" r="3"/><circle cx="13.8" cy="255" r="3"/><circle cx="187" cy="109" r="3"/><circle cx="111" cy="249" r="3"/><circle cx="195" cy="97" r="3"/><circle cx="88" cy="365" r="3"/><circle cx="225" cy="53" r="3"/><circle cx="47" cy="288" r="3"/><circle cx="51.8" cy="325" r="3"/><circle cx="12.4" cy="282" r="3"/></g><g fill="#bdbdbd"><circle cx="387" cy="43.9" r="3"/><circle cx="451" cy="56" r="3"/></g><g fill="#2aadbc"><circle cx="71.9" cy="203" r="3"/><circle cx="18" cy="316" r="3"/><circle cx="18.7" cy="267" r="3"/><circle cx="36" cy="221" r="3"/><circle cx="60.9" cy="335" r="3"/><circle cx="40.6" cy="257" r="3"/><circle cx="21.4" cy="342" r="3"/><circle cx="142" cy="199" r="3"/></g><circle cx="446" cy="104" r="3" fill="#bdbdbd"/><g fill="#2aadbc"><circle cx="138" cy="151" r="3"/><circle cx="95" cy="279" r="3"/><circle cx="161" cy="154" r="3"/><circle cx="114" cy="359" r="3"/><circle cx="69" cy="279" r="3"/></g><circle cx="402" cy="62" r="3" fill="#bdbdbd"/><g fill="#2aadbc"><circle cx="25.5" cy="279" r="3"/><circle cx="157" cy="255" r="3"/><circle cx="93" cy="219" r="3"/><circle cx="33.9" cy="289" r="3"/><circle cx="18.7" cy="225" r="3"/><circle cx="29.5" cy="233" r="3"/><circle cx="42" cy="275" r="3"/><circle cx="73" cy="255" r="3"/><circle cx="107" cy="201" r="3"/></g><circle cx="389" cy="57" r="3" fill="#bdbdbd"/><g fill="#2aadbc"><circle cx="86" cy="185" r="3"/><circle cx="163" cy="141" r="3"/></g><circle cx="457" cy="35.5" r="3" fill="#bdbdbd"/><g fill="#2aadbc"><circle cx="118" cy="121" r="3"/><circle cx="140" cy="138" r="3"/><circle cx="117" cy="134" r="3"/><circle cx="20.9" cy="243" r="3"/></g><circle cx="419" cy="80" r="3" fill="#bdbdbd"/><g fill="#2aadbc"><circle cx="61" cy="195" r="3"/><circle cx="132" cy="191" r="3"/></g><circle cx="378" cy="65" r="3" fill="#bdbdbd"/><circle cx="123" cy="169" r="3" fill="#2aadbc"/><circle cx="432" cy="24.9" r="3" fill="#bdbdbd"/><g fill="#2aadbc"><circle cx="56" cy="147" r="3"/><circle cx="60" cy="208" r="3"/><circle cx="181" cy="97" r="3"/><circle cx="99" cy="179" r="3"/><circle cx="152" cy="132" r="3"/><circle cx="129" cy="307" r="3"/><circle cx="206" cy="121" r="3"/><circle cx="44.7" cy="314" r="3"/></g><circle cx="410" cy="41" r="3" fill="#bdbdbd"/><g fill="#2aadbc"><circle cx="121" cy="182" r="3"/><circle cx="47" cy="214" r="3"/><circle cx="162" cy="84" r="3"/><circle cx="27" cy="255" r="3"/><circle cx="51.9" cy="300" r="3"/><circle cx="58" cy="221" r="3"/></g><circle cx="466" cy="14" r="3" fill="#bdbdbd"/><g fill="#2aadbc"><circle cx="101" cy="166" r="3"/><circle cx="36.6" cy="205" r="3"/><circle cx="69.9" cy="216" r="3"/><circle cx="25.4" cy="329" r="3"/><circle cx="78" cy="319" r="3"/><circle cx="131" cy="116" r="3"/><circle cx="31.7" cy="317" r="3"/></g><circle cx="479" cy="19.5" r="3" fill="#bdbdbd"/><g fill="#2aadbc"><circle cx="120" cy="108" r="3"/><circle cx="82" cy="211" r="3"/><circle cx="115" cy="148" r="3"/><circle cx="68" cy="230" r="3"/><circle cx="134" cy="103" r="3"/><circle cx="241" cy="112" r="3"/><circle cx="63" cy="182" r="3"/><circle cx="66.8" cy="155" r="3"/></g><circle cx="399" cy="49" r="3" fill="#bdbdbd"/><g fill="#2aadbc"><circle cx="88" cy="171" r="3"/><circle cx="5.5" cy="270" r="3"/></g><circle cx="435" cy="112" r="3" fill="#bdbdbd"/><g fill="#2aadbc"><circle cx="76" cy="176" r="3"/><circle cx="141" cy="124" r="3"/><circle cx="141" cy="92" r="3"/><circle cx="74" cy="190" r="3"/><circle cx="124" cy="95" r="3"/><circle cx="65" cy="168" r="3"/><circle cx="41.9" cy="165" r="3"/><circle cx="127" cy="143" r="3"/><circle cx="50.7" cy="187" r="3"/><circle cx="25.8" cy="197" r="3"/></g><circle cx="398" cy="35.8" r="3" fill="#bdbdbd"/><g fill="#2aadbc"><circle cx="134" cy="177" r="3"/><circle cx="77" cy="163" r="3"/><circle cx="79" cy="150" r="3"/><circle cx="92" cy="144" r="3"/><circle cx="90" cy="158" r="3"/><circle cx="10" cy="235" r="3"/><circle cx="53" cy="173" r="3"/><circle cx="54" cy="160" r="3"/></g><g fill="#bdbdbd"><circle cx="425" cy="60" r="3"/><circle cx="446" cy="43.5" r="3"/></g><circle cx="49" cy="246" r="3" fill="#2aadbc"/><circle cx="387" cy="104" r="3" fill="#bdbdbd"/><g fill="#2aadbc"><circle cx="106" cy="126" r="3"/><circle cx="108" cy="275" r="3"/><circle cx="129" cy="129" r="3"/></g><g fill="#fff" stroke="#fff" stroke-width="4" stroke-miterlimit="10"><path d="m119 284l2.4-.7v-9.5l-2.4.4v-1.4l4.9-2.4h1.9v12.9l2.3.7v1.2h-9v-1.2z"/><path d="m130 281h4.3c-.4 2.3-1.7 4.6-3.4 6.6h-1.5c.2-2.1.5-4.3.6-6.6z"/><path d="m139 272l-1 3.3h-2v-4c1.4-.6 3.2-.9 5.1-.9 3.8 0 5.6 1.7 5.6 4.3 0 2.6-2 4.4-5.8 6.4l-2.1 1.1h8.1l-.2 3.1h-10.9v-2.7l3.3-2.6c2.3-1.9 3-3.6 3-5.2 0-1.7-.5-2.9-1.9-2.9-.5 0-.8.1-1.1.1z"/><path d="m148 278c0-5.3 3.5-7.7 7.1-7.7 3.8 0 6.9 2.4 6.9 7.5 0 5.3-3.4 7.7-7 7.7-3.9 0-6.9-2.4-6.9-7.5zm9 0c0-4.8-.6-6.2-2.1-6.2-1.5 0-2.1 1.4-2.1 5.9 0 4.7.6 6.2 2.1 6.2 1.5 0 2.1-1.4 2.1-5.9z"/><path d="m163 278c0-5.3 3.5-7.7 7.1-7.7 3.8 0 6.9 2.4 6.9 7.5 0 5.3-3.4 7.7-7 7.7-3.9 0-6.9-2.4-6.9-7.5zm9 0c0-4.8-.6-6.2-2.1-6.2-1.5 0-2.1 1.4-2.1 5.9 0 4.7.6 6.2 2.1 6.2 1.5 0 2.1-1.4 2.1-5.9z"/><path d="m182 278c0-4.2 2.7-6.8 7-6.8 1.7 0 3.4.2 4.2.5v4h-1.9l-.8-3c-.3-.1-.6-.2-1.1-.2-1.8 0-2.9 1.6-2.9 5 0 3.4 1.3 4.8 3.9 4.8 1.3 0 2.2-.3 3-.7v1.2c-.9 1.1-2.4 2-4.8 2-4.3 0-6.4-2.8-6.4-6.9z"/><path d="m194 278c0-4.2 2.7-6.8 6.7-6.8s6.8 2.6 6.8 6.9c0 4.3-2.7 7-6.7 7-4 0-6.7-2.7-6.7-7zm4.7 0c0 4.4.7 5.6 2 5.6 1.3 0 2-1.2 2-5.6 0-4.4-.7-5.5-2-5.5-1.3 0-2 1.1-2 5.5z"/><path d="m210 283v-9.4l-1.4-.6v-1l5.2-.8h.5v1.5h.1c1.1-1 2.4-1.7 4.1-1.7 1.5 0 2.4.5 3 1.7 1.3-1 2.6-1.7 4.3-1.7 2.2 0 3.3 1.1 3.3 3.5v8.3l1.4.6v1h-6.8v-1l1.1-.6v-7.7c0-1.3-.6-1.8-1.6-1.8-.6 0-1.1.2-1.6.4v9.1l1.1.6v1h-6.4v-1l1.1-.6v-7.7c0-1.3-.5-1.8-1.5-1.8-.6 0-1.1.2-1.6.4v9l1.1.6v1h-6.8v-1l1.4-.6z"/><path d="m239 285c-1 0-1.9-.2-2.3-.4v3.6l1.6.6v1.1h-7.3v-1.1l1.4-.6v-14.4l-1.4-.7v-1l5.3-.8h.5v1.5h.1c.7-.8 1.9-1.6 3.7-1.6 2.5 0 4.5 1.7 4.5 6.5 0 5.2-2.8 7.3-6.1 7.3zm-.9-11.4c-.6 0-1 .2-1.4.4v9.2c.3.2.7.4 1.3.4 1.5 0 2.4-1.4 2.4-5.3 0-3.6-.9-4.6-2.4-4.6z"/><path d="m253 277v-1.8c0-1.8-.6-2.5-2.1-2.5-.5 0-.8 0-1.2.1l-.9 2.9h-1.9v-3.6c1.2-.4 2.8-.8 4.9-.8 3.6 0 5.6 1 5.6 4v7.7l1.2.6v.9c-.5.3-1.4.6-2.5.6-1.7 0-2.4-.6-2.8-1.5h-.1c-.8 1-1.8 1.6-3.5 1.6-2.2 0-3.7-1.3-3.7-3.6 0-2.2 1.3-3.4 4.2-3.9l2.9-.6zm0 5.4v-4.1l-1.1.1c-1.2.1-1.7.8-1.7 2.3 0 1.7.7 2.1 1.6 2.1.5 0 .9-.1 1.2-.4z"/><path d="m261 283v-9.4l-1.4-.6v-1l5.2-.8h.5v1.5h.1c1.1-1 2.8-1.7 4.5-1.7 2.3 0 3.3 1.1 3.3 3.5v8.3l1.4.6v1.1h-7v-1.1l1.2-.6v-7.7c0-1.3-.6-1.8-1.7-1.8-.7 0-1.3.2-1.8.4v9l1.2.6v1.1h-7v-1.1l1.4-.6z"/><path d="m280 272h.5v11.7l1.3.6v1h-7.1v-1l1.4-.6v-9.4l-1.5-.6v-1l5.4-.8zm.5-3.1c0 1.3-1.1 2.2-2.3 2.2-1.3 0-2.3-1-2.3-2.2 0-1.3 1-2.3 2.3-2.3 1.2 0 2.3 1 2.3 2.3z"/><path d="m287 279c.1 2.7 1.2 4 4 4 1.4 0 2.4-.3 3.3-.8v1.2c-.7 1-2.5 2.2-5.1 2.2-4.5 0-6.7-2.7-6.7-7 0-4.2 2.5-6.8 6.5-6.8 3.8 0 5.8 1.9 5.8 6.9v.3h-7.8zm-.1-1.3l3.7-.2c0-3.4-.6-4.3-1.7-4.3-1.2 0-2 1.3-2 4.6z"/><path d="m307 281c0 2.9-1.8 4.6-5.7 4.6-1.5 0-3.2-.2-4.5-.7l-.1-3.4h1.6l1 2.3c.5.3 1.2.5 2 .5 1.5 0 2.2-.6 2.2-1.7 0-.9-.5-1.3-1.8-1.6l-.9-.2c-2.8-.7-4.1-2-4.1-4.5 0-2.6 1.7-4.4 5.4-4.4 1.5 0 3 .2 4 .6v3.2h-1.6l-.7-2.1c-.4-.2-.9-.3-1.7-.3-1.3 0-1.9.6-1.9 1.5 0 .9.5 1.3 1.9 1.7l.9.2c2.8.7 3.9 1.9 3.9 4.4z"/><path d="m320 285c-1 0-1.9-.2-2.3-.4v3.6l1.6.6v1.1h-7.3v-1.1l1.4-.6v-14.4l-1.4-.7v-1l5.3-.8h.5v1.5h.1c.7-.8 1.9-1.6 3.7-1.6 2.5 0 4.5 1.7 4.5 6.5 0 5.2-2.8 7.3-6.1 7.3zm-.9-11.4c-.6 0-1 .2-1.4.4v9.2c.3.2.7.4 1.3.4 1.5 0 2.4-1.4 2.4-5.3 0-3.6-.9-4.6-2.4-4.6z"/><path d="m334 277v-1.8c0-1.8-.6-2.5-2.1-2.5-.5 0-.8 0-1.2.1l-.9 2.9h-1.9v-3.6c1.2-.4 2.8-.8 4.9-.8 3.6 0 5.6 1 5.6 4v7.7l1.2.6v.9c-.5.3-1.4.6-2.5.6-1.7 0-2.4-.6-2.8-1.5h-.1c-.8 1-1.8 1.6-3.5 1.6-2.2 0-3.7-1.3-3.7-3.6 0-2.2 1.3-3.4 4.2-3.9l2.9-.6zm0 5.4v-4.1l-1.1.1c-1.2.1-1.7.8-1.7 2.3 0 1.7.7 2.1 1.6 2.1.5 0 .9-.1 1.2-.4z"/><path d="m345 286l.2-.6-4.9-11.9-1-.6v-1.1h7.1v1.1l-1.4.6 2.4 6.9 2.6-6.9-1.5-.6v-1.1h4.5v1.1l-1.1.6-4.9 12.7c-1.2 3.1-2.5 4.2-4.5 4.2-.8 0-1.5-.2-2.2-.6v-1.5c.5.1 1 .2 1.4.2 1.5 0 2.6-.6 3.2-2.3z"/><path d="m133 308h.2l1.5-6.2-1.2-.6v-1.1h4.3v1.1l-1.1.6-3.2 11.4h-3.4l-2.2-7-2.1 7h-3.4l-3.3-11.4-1.2-.6v-1.1h7v1.1l-1.2.6 1.5 6.2h.2l2.1-7.9h2.9l2.5 7.9z"/><path d="m138 306c0-4.2 2.7-6.8 6.7-6.8s6.8 2.6 6.8 6.9c0 4.3-2.7 7-6.7 7-4 0-6.7-2.7-6.7-7zm4.7 0c0 4.4.7 5.6 2 5.6 1.3 0 2-1.2 2-5.6 0-4.4-.7-5.5-2-5.5-1.3 0-2 1.1-2 5.5z"/><path d="m154 311v-9.4l-1.4-.6v-1l5.2-.8h.5v1.5h.1c1.1-1 2.4-1.7 4.1-1.7 1.5 0 2.4.5 3 1.7 1.3-1 2.6-1.7 4.3-1.7 2.2 0 3.3 1.1 3.3 3.5v8.3l1.4.6v1h-6.8v-1l1.1-.6v-7.7c0-1.3-.6-1.8-1.6-1.8-.6 0-1.1.2-1.6.4v9.1l1.1.6v1h-6.4v-1l1.1-.6v-7.7c0-1.3-.5-1.8-1.5-1.8-.6 0-1.1.2-1.6.4v9l1.1.6v1h-6.8v-1l1.4-.6z"/><path d="m179 307c.1 2.7 1.2 4 4 4 1.4 0 2.4-.3 3.3-.8v1.2c-.7 1-2.5 2.2-5.1 2.2-4.5 0-6.7-2.7-6.7-7 0-4.2 2.5-6.8 6.5-6.8 3.8 0 5.8 1.9 5.8 6.9v.3h-7.8zm-.1-1.3l3.7-.2c0-3.4-.6-4.3-1.7-4.3-1.2 0-2 1.3-2 4.6z"/><path d="m189 311v-9.4l-1.4-.6v-1l5.2-.8h.5v1.5h.1c1.1-1 2.8-1.7 4.5-1.7 2.3 0 3.3 1.1 3.3 3.5v8.3l1.4.6v1.1h-7v-1.1l1.2-.6v-7.7c0-1.3-.6-1.8-1.7-1.8-.7 0-1.3.2-1.8.4v9l1.2.6v1.1h-7v-1.1l1.4-.6z"/><path d="m209 311v-9.4l-1.4-.6v-1l5.2-.8h.5v1.5h.1c1.1-1 2.4-1.7 4.1-1.7 1.5 0 2.4.5 3 1.7 1.3-1 2.6-1.7 4.3-1.7 2.2 0 3.3 1.1 3.3 3.5v8.3l1.4.6v1h-6.8v-1l1.1-.6v-7.7c0-1.3-.6-1.8-1.6-1.8-.6 0-1.1.2-1.6.4v9.1l1.1.6v1h-6.4v-1l1.1-.6v-7.7c0-1.3-.5-1.8-1.5-1.8-.6 0-1.1.2-1.6.4v9l1.1.6v1h-6.8v-1l1.4-.6z"/><path d="m230 306c0-4.2 2.7-6.8 6.7-6.8s6.8 2.6 6.8 6.9c0 4.3-2.7 7-6.7 7-4 0-6.7-2.7-6.7-7zm4.7 0c0 4.4.7 5.6 2 5.6 1.3 0 2-1.2 2-5.6 0-4.4-.7-5.5-2-5.5-1.3 0-2 1.1-2 5.5z"/><path d="m250 300h.4v3h.1c.7-2.2 1.8-3.2 3.3-3.2.2 0 .5 0 .6.1v4c-.2-.1-.7-.1-1.1-.1-1.2 0-2.1.1-2.9.4v7.5l1.8.6v1h-7.5v-1l1.4-.6v-9.4l-1.4-.6v-1l5.3-.8z"/><path d="m259 307c.1 2.7 1.2 4 4 4 1.4 0 2.4-.3 3.3-.8v1.2c-.7 1-2.5 2.2-5.1 2.2-4.5 0-6.7-2.7-6.7-7 0-4.2 2.5-6.8 6.5-6.8 3.8 0 5.8 1.9 5.8 6.9v.3h-7.8zm-.1-1.3l3.7-.2c0-3.4-.6-4.3-1.7-4.3-1.2 0-2 1.3-2 4.6z"/><path d="m272 302v-1.1l1.9-.6v-2.4l4.4-.7v3h2.9v1.8h-2.9v7.7c0 1.3.4 1.9 1.8 1.9.4 0 .9 0 1.2-.1v1.2c-.8.5-2 .8-3.5.8-2.6 0-3.9-1.2-3.9-4v-7.7h-1.9z"/><path d="m283 311v-14.9l-1.4-.6v-1.1l5.2-.8h.6v7.1h.1c1.2-1 2.8-1.7 4.5-1.7 2.3 0 3.3 1.1 3.3 3.5v8.3l1.4.6v1h-7v-1l1.2-.6v-7.7c0-1.3-.6-1.8-1.7-1.8-.7 0-1.3.2-1.8.4v9.1l1.2.6v1h-7v-1l1.4-.6z"/><path d="m305 305v-1.8c0-1.8-.6-2.5-2.1-2.5-.5 0-.8 0-1.2.1l-.9 2.9h-1.9v-3.6c1.2-.4 2.8-.8 4.9-.8 3.6 0 5.6 1 5.6 4v7.7l1.2.6v.9c-.5.3-1.4.6-2.5.6-1.7 0-2.4-.6-2.8-1.5h-.1c-.8 1-1.8 1.6-3.5 1.6-2.2 0-3.7-1.3-3.7-3.6 0-2.2 1.3-3.4 4.2-3.9l2.9-.6zm0 5.4v-4.1l-1.1.1c-1.2.1-1.7.8-1.7 2.3 0 1.7.7 2.1 1.6 2.1.5 0 .9-.1 1.2-.4z"/><path d="m312 311v-9.4l-1.4-.6v-1l5.2-.8h.5v1.5h.1c1.1-1 2.8-1.7 4.5-1.7 2.3 0 3.3 1.1 3.3 3.5v8.3l1.4.6v1.1h-7v-1.1l1.2-.6v-7.7c0-1.3-.6-1.8-1.7-1.8-.7 0-1.3.2-1.8.4v9l1.2.6v1.1h-7v-1.1l1.4-.6z"/><path d="m332 311v-9.4l-1.4-.6v-1l5.2-.8h.5v1.5h.1c1.1-1 2.4-1.7 4.1-1.7 1.5 0 2.4.5 3 1.7 1.3-1 2.6-1.7 4.3-1.7 2.2 0 3.3 1.1 3.3 3.5v8.3l1.4.6v1h-6.8v-1l1.1-.6v-7.7c0-1.3-.6-1.8-1.6-1.8-.6 0-1.1.2-1.6.4v9.1l1.1.6v1h-6.4v-1l1.1-.6v-7.7c0-1.3-.5-1.8-1.5-1.8-.6 0-1.1.2-1.6.4v9l1.1.6v1h-6.8v-1l1.4-.6z"/><path d="m358 307c.1 2.7 1.2 4 4 4 1.4 0 2.4-.3 3.3-.8v1.2c-.7 1-2.5 2.2-5.1 2.2-4.5 0-6.7-2.7-6.7-7 0-4.2 2.5-6.8 6.5-6.8 3.8 0 5.8 1.9 5.8 6.9v.3h-7.8zm-.1-1.3l3.7-.2c0-3.4-.6-4.3-1.7-4.3-1.2 0-2 1.3-2 4.6z"/><path d="m368 311v-9.4l-1.4-.6v-1l5.2-.8h.5v1.5h.1c1.1-1 2.8-1.7 4.5-1.7 2.3 0 3.3 1.1 3.3 3.5v8.3l1.4.6v1.1h-7v-1.1l1.2-.6v-7.7c0-1.3-.6-1.8-1.7-1.8-.7 0-1.3.2-1.8.4v9l1.2.6v1.1h-7v-1.1l1.4-.6z"/></g><g fill="#2aadbc"><path d="m119 284l2.4-.7v-9.5l-2.4.4v-1.4l4.9-2.4h1.9v12.9l2.3.7v1.2h-9v-1.2"/><path d="m130 281h4.3c-.4 2.3-1.7 4.6-3.4 6.6h-1.5c.2-2.1.5-4.3.6-6.6"/><path d="m139 272l-1 3.3h-2v-4c1.4-.6 3.2-.9 5.1-.9 3.8 0 5.6 1.7 5.6 4.3 0 2.6-2 4.4-5.8 6.4l-2.1 1.1h8.1l-.2 3.1h-10.9v-2.7l3.3-2.6c2.3-1.9 3-3.6 3-5.2 0-1.7-.5-2.9-1.9-2.9-.5 0-.8.1-1.1.1"/><path d="m148 278c0-5.3 3.5-7.7 7.1-7.7 3.8 0 6.9 2.4 6.9 7.5 0 5.3-3.4 7.7-7 7.7-3.9 0-6.9-2.4-6.9-7.5m9 0c0-4.8-.6-6.2-2.1-6.2-1.5 0-2.1 1.4-2.1 5.9 0 4.7.6 6.2 2.1 6.2 1.5 0 2.1-1.4 2.1-5.9"/><path d="m163 278c0-5.3 3.5-7.7 7.1-7.7 3.8 0 6.9 2.4 6.9 7.5 0 5.3-3.4 7.7-7 7.7-3.9 0-6.9-2.4-6.9-7.5m9 0c0-4.8-.6-6.2-2.1-6.2-1.5 0-2.1 1.4-2.1 5.9 0 4.7.6 6.2 2.1 6.2 1.5 0 2.1-1.4 2.1-5.9"/></g><path d="m182 278c0-4.2 2.7-6.8 7-6.8 1.7 0 3.4.2 4.2.5v4h-1.9l-.8-3c-.3-.1-.6-.2-1.1-.2-1.8 0-2.9 1.6-2.9 5 0 3.4 1.3 4.8 3.9 4.8 1.3 0 2.2-.3 3-.7v1.2c-.9 1.1-2.4 2-4.8 2-4.3 0-6.4-2.8-6.4-6.9"/><path d="m194 278c0-4.2 2.7-6.8 6.7-6.8s6.8 2.6 6.8 6.9c0 4.3-2.7 7-6.7 7-4 0-6.7-2.7-6.7-7m4.7 0c0 4.4.7 5.6 2 5.6 1.3 0 2-1.2 2-5.6 0-4.4-.7-5.5-2-5.5-1.3 0-2 1.1-2 5.5"/><path d="m210 283v-9.4l-1.4-.6v-1l5.2-.8h.5v1.5h.1c1.1-1 2.4-1.7 4.1-1.7 1.5 0 2.4.5 3 1.7 1.3-1 2.6-1.7 4.3-1.7 2.2 0 3.3 1.1 3.3 3.5v8.3l1.4.6v1h-6.8v-1l1.1-.6v-7.7c0-1.3-.6-1.8-1.6-1.8-.6 0-1.1.2-1.6.4v9.1l1.1.6v1h-6.4v-1l1.1-.6v-7.7c0-1.3-.5-1.8-1.5-1.8-.6 0-1.1.2-1.6.4v9l1.1.6v1h-6.8v-1l1.4-.6"/><path d="m239 285c-1 0-1.9-.2-2.3-.4v3.6l1.6.6v1.1h-7.3v-1.1l1.4-.6v-14.4l-1.4-.7v-1l5.3-.8h.5v1.5h.1c.7-.8 1.9-1.6 3.7-1.6 2.5 0 4.5 1.7 4.5 6.5 0 5.2-2.8 7.3-6.1 7.3m-.9-11.4c-.6 0-1 .2-1.4.4v9.2c.3.2.7.4 1.3.4 1.5 0 2.4-1.4 2.4-5.3 0-3.6-.9-4.6-2.4-4.6"/><path d="m253 277v-1.8c0-1.8-.6-2.5-2.1-2.5-.5 0-.8 0-1.2.1l-.9 2.9h-1.9v-3.6c1.2-.4 2.8-.8 4.9-.8 3.6 0 5.6 1 5.6 4v7.7l1.2.6v.9c-.5.3-1.4.6-2.5.6-1.7 0-2.4-.6-2.8-1.5h-.1c-.8 1-1.8 1.6-3.5 1.6-2.2 0-3.7-1.3-3.7-3.6 0-2.2 1.3-3.4 4.2-3.9l2.9-.6m0 5.4v-4.1l-1.1.1c-1.2.1-1.7.8-1.7 2.3 0 1.7.7 2.1 1.6 2.1.5 0 .9-.1 1.2-.4"/><path d="m261 283v-9.4l-1.4-.6v-1l5.2-.8h.5v1.5h.1c1.1-1 2.8-1.7 4.5-1.7 2.3 0 3.3 1.1 3.3 3.5v8.3l1.4.6v1.1h-7v-1.1l1.2-.6v-7.7c0-1.3-.6-1.8-1.7-1.8-.7 0-1.3.2-1.8.4v9l1.2.6v1.1h-7v-1.1l1.4-.6"/><path d="m280 272h.5v11.7l1.3.6v1h-7.1v-1l1.4-.6v-9.4l-1.5-.6v-1l5.4-.8m.5-3.1c0 1.3-1.1 2.2-2.3 2.2-1.3 0-2.3-1-2.3-2.2 0-1.3 1-2.3 2.3-2.3 1.2 0 2.3 1 2.3 2.3"/><path d="m287 279c.1 2.7 1.2 4 4 4 1.4 0 2.4-.3 3.3-.8v1.2c-.7 1-2.5 2.2-5.1 2.2-4.5 0-6.7-2.7-6.7-7 0-4.2 2.5-6.8 6.5-6.8 3.8 0 5.8 1.9 5.8 6.9v.3h-7.8m-.1-1.3l3.7-.2c0-3.4-.6-4.3-1.7-4.3-1.2 0-2 1.3-2 4.6"/><path d="m307 281c0 2.9-1.8 4.6-5.7 4.6-1.5 0-3.2-.2-4.5-.7l-.1-3.4h1.6l1 2.3c.5.3 1.2.5 2 .5 1.5 0 2.2-.6 2.2-1.7 0-.9-.5-1.3-1.8-1.6l-.9-.2c-2.8-.7-4.1-2-4.1-4.5 0-2.6 1.7-4.4 5.4-4.4 1.5 0 3 .2 4 .6v3.2h-1.6l-.7-2.1c-.4-.2-.9-.3-1.7-.3-1.3 0-1.9.6-1.9 1.5 0 .9.5 1.3 1.9 1.7l.9.2c2.8.7 3.9 1.9 3.9 4.4"/><path d="m320 285c-1 0-1.9-.2-2.3-.4v3.6l1.6.6v1.1h-7.3v-1.1l1.4-.6v-14.4l-1.4-.7v-1l5.3-.8h.5v1.5h.1c.7-.8 1.9-1.6 3.7-1.6 2.5 0 4.5 1.7 4.5 6.5 0 5.2-2.8 7.3-6.1 7.3m-.9-11.4c-.6 0-1 .2-1.4.4v9.2c.3.2.7.4 1.3.4 1.5 0 2.4-1.4 2.4-5.3 0-3.6-.9-4.6-2.4-4.6"/><path d="m334 277v-1.8c0-1.8-.6-2.5-2.1-2.5-.5 0-.8 0-1.2.1l-.9 2.9h-1.9v-3.6c1.2-.4 2.8-.8 4.9-.8 3.6 0 5.6 1 5.6 4v7.7l1.2.6v.9c-.5.3-1.4.6-2.5.6-1.7 0-2.4-.6-2.8-1.5h-.1c-.8 1-1.8 1.6-3.5 1.6-2.2 0-3.7-1.3-3.7-3.6 0-2.2 1.3-3.4 4.2-3.9l2.9-.6m0 5.4v-4.1l-1.1.1c-1.2.1-1.7.8-1.7 2.3 0 1.7.7 2.1 1.6 2.1.5 0 .9-.1 1.2-.4"/><path d="m345 286l.2-.6-4.9-11.9-1-.6v-1.1h7.1v1.1l-1.4.6 2.4 6.9 2.6-6.9-1.5-.6v-1.1h4.5v1.1l-1.1.6-4.9 12.7c-1.2 3.1-2.5 4.2-4.5 4.2-.8 0-1.5-.2-2.2-.6v-1.5c.5.1 1 .2 1.4.2 1.5 0 2.6-.6 3.2-2.3"/><path d="m133 308h.2l1.5-6.2-1.2-.6v-1.1h4.3v1.1l-1.1.6-3.2 11.4h-3.4l-2.2-7-2.1 7h-3.4l-3.3-11.4-1.2-.6v-1.1h7v1.1l-1.2.6 1.5 6.2h.2l2.1-7.9h2.9l2.5 7.9"/><path d="m138 306c0-4.2 2.7-6.8 6.7-6.8s6.8 2.6 6.8 6.9c0 4.3-2.7 7-6.7 7-4 0-6.7-2.7-6.7-7m4.7 0c0 4.4.7 5.6 2 5.6 1.3 0 2-1.2 2-5.6 0-4.4-.7-5.5-2-5.5-1.3 0-2 1.1-2 5.5"/><path d="m154 311v-9.4l-1.4-.6v-1l5.2-.8h.5v1.5h.1c1.1-1 2.4-1.7 4.1-1.7 1.5 0 2.4.5 3 1.7 1.3-1 2.6-1.7 4.3-1.7 2.2 0 3.3 1.1 3.3 3.5v8.3l1.4.6v1h-6.8v-1l1.1-.6v-7.7c0-1.3-.6-1.8-1.6-1.8-.6 0-1.1.2-1.6.4v9.1l1.1.6v1h-6.4v-1l1.1-.6v-7.7c0-1.3-.5-1.8-1.5-1.8-.6 0-1.1.2-1.6.4v9l1.1.6v1h-6.8v-1l1.4-.6"/><path d="m179 307c.1 2.7 1.2 4 4 4 1.4 0 2.4-.3 3.3-.8v1.2c-.7 1-2.5 2.2-5.1 2.2-4.5 0-6.7-2.7-6.7-7 0-4.2 2.5-6.8 6.5-6.8 3.8 0 5.8 1.9 5.8 6.9v.3h-7.8m-.1-1.3l3.7-.2c0-3.4-.6-4.3-1.7-4.3-1.2 0-2 1.3-2 4.6"/><path d="m189 311v-9.4l-1.4-.6v-1l5.2-.8h.5v1.5h.1c1.1-1 2.8-1.7 4.5-1.7 2.3 0 3.3 1.1 3.3 3.5v8.3l1.4.6v1.1h-7v-1.1l1.2-.6v-7.7c0-1.3-.6-1.8-1.7-1.8-.7 0-1.3.2-1.8.4v9l1.2.6v1.1h-7v-1.1l1.4-.6"/><path d="m209 311v-9.4l-1.4-.6v-1l5.2-.8h.5v1.5h.1c1.1-1 2.4-1.7 4.1-1.7 1.5 0 2.4.5 3 1.7 1.3-1 2.6-1.7 4.3-1.7 2.2 0 3.3 1.1 3.3 3.5v8.3l1.4.6v1h-6.8v-1l1.1-.6v-7.7c0-1.3-.6-1.8-1.6-1.8-.6 0-1.1.2-1.6.4v9.1l1.1.6v1h-6.4v-1l1.1-.6v-7.7c0-1.3-.5-1.8-1.5-1.8-.6 0-1.1.2-1.6.4v9l1.1.6v1h-6.8v-1l1.4-.6"/><path d="m230 306c0-4.2 2.7-6.8 6.7-6.8s6.8 2.6 6.8 6.9c0 4.3-2.7 7-6.7 7-4 0-6.7-2.7-6.7-7m4.7 0c0 4.4.7 5.6 2 5.6 1.3 0 2-1.2 2-5.6 0-4.4-.7-5.5-2-5.5-1.3 0-2 1.1-2 5.5"/><path d="m250 300h.4v3h.1c.7-2.2 1.8-3.2 3.3-3.2.2 0 .5 0 .6.1v4c-.2-.1-.7-.1-1.1-.1-1.2 0-2.1.1-2.9.4v7.5l1.8.6v1h-7.5v-1l1.4-.6v-9.4l-1.4-.6v-1l5.3-.8"/><path d="m259 307c.1 2.7 1.2 4 4 4 1.4 0 2.4-.3 3.3-.8v1.2c-.7 1-2.5 2.2-5.1 2.2-4.5 0-6.7-2.7-6.7-7 0-4.2 2.5-6.8 6.5-6.8 3.8 0 5.8 1.9 5.8 6.9v.3h-7.8m-.1-1.3l3.7-.2c0-3.4-.6-4.3-1.7-4.3-1.2 0-2 1.3-2 4.6"/><path d="m272 302v-1.1l1.9-.6v-2.4l4.4-.7v3h2.9v1.8h-2.9v7.7c0 1.3.4 1.9 1.8 1.9.4 0 .9 0 1.2-.1v1.2c-.8.5-2 .8-3.5.8-2.6 0-3.9-1.2-3.9-4v-7.7h-1.9"/><path d="m283 311v-14.9l-1.4-.6v-1.1l5.2-.8h.6v7.1h.1c1.2-1 2.8-1.7 4.5-1.7 2.3 0 3.3 1.1 3.3 3.5v8.3l1.4.6v1h-7v-1l1.2-.6v-7.7c0-1.3-.6-1.8-1.7-1.8-.7 0-1.3.2-1.8.4v9.1l1.2.6v1h-7v-1l1.4-.6"/><path d="m305 305v-1.8c0-1.8-.6-2.5-2.1-2.5-.5 0-.8 0-1.2.1l-.9 2.9h-1.9v-3.6c1.2-.4 2.8-.8 4.9-.8 3.6 0 5.6 1 5.6 4v7.7l1.2.6v.9c-.5.3-1.4.6-2.5.6-1.7 0-2.4-.6-2.8-1.5h-.1c-.8 1-1.8 1.6-3.5 1.6-2.2 0-3.7-1.3-3.7-3.6 0-2.2 1.3-3.4 4.2-3.9l2.9-.6m0 5.4v-4.1l-1.1.1c-1.2.1-1.7.8-1.7 2.3 0 1.7.7 2.1 1.6 2.1.5 0 .9-.1 1.2-.4"/><path d="m312 311v-9.4l-1.4-.6v-1l5.2-.8h.5v1.5h.1c1.1-1 2.8-1.7 4.5-1.7 2.3 0 3.3 1.1 3.3 3.5v8.3l1.4.6v1.1h-7v-1.1l1.2-.6v-7.7c0-1.3-.6-1.8-1.7-1.8-.7 0-1.3.2-1.8.4v9l1.2.6v1.1h-7v-1.1l1.4-.6"/><path d="m332 311v-9.4l-1.4-.6v-1l5.2-.8h.5v1.5h.1c1.1-1 2.4-1.7 4.1-1.7 1.5 0 2.4.5 3 1.7 1.3-1 2.6-1.7 4.3-1.7 2.2 0 3.3 1.1 3.3 3.5v8.3l1.4.6v1h-6.8v-1l1.1-.6v-7.7c0-1.3-.6-1.8-1.6-1.8-.6 0-1.1.2-1.6.4v9.1l1.1.6v1h-6.4v-1l1.1-.6v-7.7c0-1.3-.5-1.8-1.5-1.8-.6 0-1.1.2-1.6.4v9l1.1.6v1h-6.8v-1l1.4-.6"/><path d="m358 307c.1 2.7 1.2 4 4 4 1.4 0 2.4-.3 3.3-.8v1.2c-.7 1-2.5 2.2-5.1 2.2-4.5 0-6.7-2.7-6.7-7 0-4.2 2.5-6.8 6.5-6.8 3.8 0 5.8 1.9 5.8 6.9v.3h-7.8m-.1-1.3l3.7-.2c0-3.4-.6-4.3-1.7-4.3-1.2 0-2 1.3-2 4.6"/><path d="m368 311v-9.4l-1.4-.6v-1l5.2-.8h.5v1.5h.1c1.1-1 2.8-1.7 4.5-1.7 2.3 0 3.3 1.1 3.3 3.5v8.3l1.4.6v1.1h-7v-1.1l1.2-.6v-7.7c0-1.3-.6-1.8-1.7-1.8-.7 0-1.3.2-1.8.4v9l1.2.6v1.1h-7v-1.1l1.4-.6"/><g fill="#fff" stroke="#fff" stroke-width="5" stroke-miterlimit="10"><path d="m427 104h-7v-1.6l7.8-11.3h3.5v11h1.8v1.8h-1.8v4.4h-4.4v-4.4zm0-1.8v-6.9l-4.8 6.8h4.8z"/><path d="m435 107v-1.5c.9.4 2 .6 3 .6 2.5 0 3.6-1.1 3.6-3.3 0-2.3-1.1-3.2-3.5-3.2-.8 0-1.5.1-2.3.3l.6-9.1h9.1l-.2 3.3h-7.2l-.3 3.9c.8-.3 2-.6 3.2-.6 3.3 0 5.3 1.7 5.3 5.3 0 3.4-2.1 5.6-6.3 5.6-2.3 0-3.9-.6-5.1-1.4z"/><path d="m454 106c-4.2 0-6.2-2-6.2-4.4 0-2 1.4-3.5 3.6-4.2-2-1.3-3.1-2.8-3.1-4.8 0-2.8 2.1-4.5 5.9-4.5 4 0 5.6 1.8 5.6 4.1 0 1.9-1.5 3.2-3.4 3.7h.1c2.4 1.4 3.8 2.6 3.8 5.3 0 2.9-2.3 4.7-6.5 4.7zm.3-1.5c1.6 0 2.5-.9 2.5-2.3 0-1.4-.9-2.2-2.4-3.1l-1.4-.8c-.9.8-1.4 1.8-1.4 3.2 0 1.8.9 3 2.8 3zm.7-9.4c.8-.7 1.3-1.7 1.3-2.9 0-1.8-1-2.6-2.3-2.6-1.3 0-2.1.6-2.1 2.1 0 1.4.8 2.1 2.4 3l.7.4z"/><path d="m465 99c0-4.2 2.7-6.8 7-6.8 1.7 0 3.4.2 4.2.5v4h-1.9l-.8-3c-.3-.1-.6-.2-1.1-.2-1.8 0-2.9 1.6-2.9 5 0 3.4 1.3 4.8 3.9 4.8 1.3 0 2.2-.3 3-.7v1.2c-.9 1.1-2.4 2-4.8 2-4.3 0-6.4-2.8-6.4-6.9z"/><path d="m478 99c0-4.2 2.7-6.8 6.7-6.8 4 0 6.8 2.6 6.8 6.9 0 4.3-2.7 7-6.7 7-4 0-6.7-2.7-6.7-7zm4.7 0c0 4.4.7 5.6 2 5.6 1.3 0 2-1.2 2-5.6 0-4.4-.7-5.5-2-5.5-1.3 0-2 1.1-2 5.5z"/><path d="m493 104v-9.4l-1.4-.6v-1l5.2-.8h.5v1.5h.1c1.1-1 2.4-1.7 4.1-1.7 1.5 0 2.4.5 3 1.7 1.3-1 2.6-1.7 4.3-1.7 2.2 0 3.3 1.1 3.3 3.5v8.3l1.4.6v1h-6.8v-1l1.1-.6v-7.7c0-1.3-.6-1.8-1.6-1.8-.6 0-1.1.2-1.6.4v9.1l1.1.6v1h-6.4v-1l1.1-.6v-7.7c0-1.3-.5-1.8-1.5-1.8-.6 0-1.1.2-1.6.4v9l1.1.6v1h-6.8v-1l1.4-.6z"/><path d="m522 106c-1 0-1.9-.2-2.3-.4v3.6l1.6.6v1.1h-7.3v-1.1l1.4-.6v-14.4l-1.4-.7v-1l5.3-.8h.5v1.5h.1c.7-.8 1.9-1.6 3.7-1.6 2.5 0 4.5 1.7 4.5 6.5 0 5.2-2.8 7.3-6.1 7.3zm-.9-11.4c-.6 0-1 .2-1.4.4v9.2c.3.2.7.4 1.3.4 1.5 0 2.4-1.4 2.4-5.3 0-3.6-.9-4.6-2.4-4.6z"/><path d="m536 98v-1.8c0-1.8-.6-2.5-2.1-2.5-.5 0-.8 0-1.2.1l-.9 2.9h-1.9v-3.6c1.2-.4 2.8-.8 4.9-.8 3.6 0 5.6 1 5.6 4v7.7l1.2.6v.9c-.5.3-1.4.6-2.5.6-1.7 0-2.4-.6-2.8-1.5h-.1c-.8 1-1.8 1.6-3.5 1.6-2.2 0-3.7-1.3-3.7-3.6 0-2.2 1.3-3.4 4.2-3.9l2.9-.6zm0 5.4v-4.1l-1.1.1c-1.2.1-1.7.8-1.7 2.3 0 1.7.7 2.1 1.6 2.1.5 0 .9-.1 1.2-.4z"/><path d="m544 104v-9.4l-1.4-.6v-1l5.2-.8h.5v1.5h.1c1.1-1 2.8-1.7 4.5-1.7 2.3 0 3.3 1.1 3.3 3.5v8.3l1.4.6v1.1h-7v-1.1l1.2-.6v-7.7c0-1.3-.6-1.8-1.7-1.8-.7 0-1.3.2-1.8.4v9l1.2.6v1.1h-7v-1.1l1.4-.6z"/><path d="m563 92h.5v11.7l1.3.6v1h-7.1v-1l1.4-.6v-9.4l-1.5-.6v-1l5.4-.8zm.5-3.1c0 1.3-1.1 2.2-2.3 2.2-1.3 0-2.3-1-2.3-2.2 0-1.3 1-2.3 2.3-2.3 1.2 0 2.3 1 2.3 2.3z"/><path d="m571 99c.1 2.7 1.2 4 4 4 1.4 0 2.4-.3 3.3-.8v1.2c-.7 1-2.5 2.2-5.1 2.2-4.5 0-6.7-2.7-6.7-7 0-4.2 2.5-6.8 6.5-6.8 3.8 0 5.8 1.9 5.8 6.9v.3h-7.8zm-.1-1.3l3.7-.2c0-3.4-.6-4.3-1.7-4.3-1.2 0-2 1.3-2 4.6z"/><path d="m590 101c0 2.9-1.8 4.6-5.7 4.6-1.5 0-3.2-.2-4.5-.7l-.1-3.4h1.6l1 2.3c.5.3 1.2.5 2 .5 1.5 0 2.2-.6 2.2-1.7 0-.9-.5-1.3-1.8-1.6l-.9-.2c-2.8-.7-4.1-2-4.1-4.5 0-2.6 1.7-4.4 5.4-4.4 1.5 0 3 .2 4 .6v3.2h-1.6l-.7-2.1c-.4-.2-.9-.3-1.7-.3-1.3 0-1.9.6-1.9 1.5 0 .9.5 1.3 1.9 1.7l.9.2c2.8.7 3.9 1.9 3.9 4.4z"/><path d="m428 134c-1 0-1.9-.2-2.3-.4v3.6l1.6.6v1.1h-7.3v-1.1l1.4-.6v-14.4l-1.4-.7v-1l5.3-.8h.5v1.5h.1c.7-.8 1.9-1.6 3.7-1.6 2.5 0 4.5 1.7 4.5 6.5 0 5.2-2.8 7.3-6.1 7.3zm-.9-11.4c-.6 0-1 .2-1.4.4v9.2c.3.2.7.4 1.3.4 1.5 0 2.4-1.4 2.4-5.3 0-3.6-.9-4.6-2.4-4.6z"/><path d="m442 126v-1.8c0-1.8-.6-2.5-2.1-2.5-.5 0-.8 0-1.2.1l-.9 2.9h-1.9v-3.6c1.2-.4 2.8-.8 4.9-.8 3.6 0 5.6 1 5.6 4v7.7l1.2.6v.9c-.5.3-1.4.6-2.5.6-1.7 0-2.4-.6-2.8-1.5h-.1c-.8 1-1.8 1.6-3.5 1.6-2.2 0-3.7-1.3-3.7-3.6 0-2.2 1.3-3.4 4.2-3.9l2.9-.6zm0 5.4v-4.1l-1.1.1c-1.2.1-1.7.8-1.7 2.3 0 1.7.7 2.1 1.6 2.1.5 0 .9-.1 1.2-.4z"/><path d="m454 134l.2-.6-4.9-11.9-1-.6v-1.1h7.1v1.1l-1.4.6 2.4 6.9 2.6-6.9-1.5-.6v-1.1h4.5v1.1l-1.1.6-4.9 12.7c-1.2 3.1-2.5 4.2-4.5 4.2-.8 0-1.5-.2-2.2-.6v-1.5c.5.1 1 .2 1.4.2 1.5 0 2.6-.6 3.2-2.3z"/><path d="m468 132v-9.4l-1.4-.6v-1l5.2-.8h.5v1.5h.1c1.1-1 2.4-1.7 4.1-1.7 1.5 0 2.4.5 3 1.7 1.3-1 2.6-1.7 4.3-1.7 2.2 0 3.3 1.1 3.3 3.5v8.3l1.4.6v1h-6.8v-1l1.1-.6v-7.7c0-1.3-.6-1.8-1.6-1.8-.6 0-1.1.2-1.6.4v9.1l1.1.6v1h-6.4v-1l1.1-.6v-7.7c0-1.3-.5-1.8-1.5-1.8-.6 0-1.1.2-1.6.4v9l1.1.6v1h-6.8v-1l1.4-.6z"/><path d="m493 127c.1 2.7 1.2 4 4 4 1.4 0 2.4-.3 3.3-.8v1.2c-.7 1-2.5 2.2-5.1 2.2-4.5 0-6.7-2.7-6.7-7 0-4.2 2.5-6.8 6.5-6.8 3.8 0 5.8 1.9 5.8 6.9v.3h-7.8zm-.1-1.3l3.7-.2c0-3.4-.6-4.3-1.7-4.3-1.2 0-2 1.3-2 4.6z"/><path d="m503 132v-9.4l-1.4-.6v-1l5.2-.8h.5v1.5h.1c1.1-1 2.8-1.7 4.5-1.7 2.3 0 3.3 1.1 3.3 3.5v8.3l1.4.6v1.1h-7v-1.1l1.2-.6v-7.7c0-1.3-.6-1.8-1.7-1.8-.7 0-1.3.2-1.8.4v9l1.2.6v1.1h-7v-1.1l1.4-.6z"/><path d="m529 126v-1.8c0-1.8-.6-2.5-2.1-2.5-.5 0-.8 0-1.2.1l-.9 2.9h-1.9v-3.6c1.2-.4 2.8-.8 4.9-.8 3.6 0 5.6 1 5.6 4v7.7l1.2.6v.9c-.5.3-1.4.6-2.5.6-1.7 0-2.4-.6-2.8-1.5h-.1c-.8 1-1.8 1.6-3.5 1.6-2.2 0-3.7-1.3-3.7-3.6 0-2.2 1.3-3.4 4.2-3.9l2.9-.6zm0 5.4v-4.1l-1.1.1c-1.2.1-1.7.8-1.7 2.3 0 1.7.7 2.1 1.6 2.1.5 0 .9-.1 1.2-.4z"/><path d="m537 132v-9.4l-1.4-.6v-1l5.2-.8h.5v1.5h.1c1.1-1 2.8-1.7 4.5-1.7 2.3 0 3.3 1.1 3.3 3.5v8.3l1.4.6v1.1h-7v-1.1l1.2-.6v-7.7c0-1.3-.6-1.8-1.7-1.8-.7 0-1.3.2-1.8.4v9l1.2.6v1.1h-7v-1.1l1.4-.6z"/><path d="m559 120v-3.6l-1.4-.5v-1.1l5.3-.8h.5v16.8l1.5.7v1.1l-5.2.6h-.4v-1.4h-.1c-.8.8-1.8 1.5-3.5 1.5-2.9 0-4.9-2.2-4.9-6.6 0-4.7 2.4-7.1 6.1-7.1 1.1 0 1.8.2 2.3.4zm0 10.8v-9.3c-.3-.2-.7-.4-1.4-.4-1.4 0-2.3 1.5-2.3 5.3 0 3.4.8 4.8 2.5 4.8.5 0 1-.1 1.2-.3z"/><path d="m435 156h.2l1.5-6.2-1.2-.6v-1.1h4.3v1.1l-1.1.6-3.2 11.4h-3.4l-2.2-7-2.1 7h-3.4l-3.3-11.4-1.2-.6v-1.1h7v1.1l-1.2.6 1.5 6.2h.2l2.1-7.9h2.9l2.5 7.9z"/><path d="m440 155c0-4.2 2.7-6.8 6.7-6.8 4 0 6.8 2.6 6.8 6.9 0 4.3-2.7 7-6.7 7-4 0-6.7-2.7-6.7-7zm4.7 0c0 4.4.7 5.6 2 5.6 1.3 0 2-1.2 2-5.6 0-4.4-.7-5.5-2-5.5-1.3 0-2 1.1-2 5.5z"/><path d="m456 160v-9.4l-1.4-.6v-1l5.2-.8h.5v1.5h.1c1.1-1 2.4-1.7 4.1-1.7 1.5 0 2.4.5 3 1.7 1.3-1 2.6-1.7 4.3-1.7 2.2 0 3.3 1.1 3.3 3.5v8.3l1.4.6v1h-6.8v-1l1.1-.6v-7.7c0-1.3-.6-1.8-1.6-1.8-.6 0-1.1.2-1.6.4v9.1l1.1.6v1h-6.4v-1l1.1-.6v-7.7c0-1.3-.5-1.8-1.5-1.8-.6 0-1.1.2-1.6.4v9l1.1.6v1h-6.8v-1l1.4-.6z"/><path d="m481 155c.1 2.7 1.2 4 4 4 1.4 0 2.4-.3 3.3-.8v1.2c-.7 1-2.5 2.2-5.1 2.2-4.5 0-6.7-2.7-6.7-7 0-4.2 2.5-6.8 6.5-6.8 3.8 0 5.8 1.9 5.8 6.9v.3h-7.8zm-.1-1.3l3.7-.2c0-3.4-.6-4.3-1.7-4.3-1.2 0-2 1.3-2 4.6z"/><path d="m491 160v-9.4l-1.4-.6v-1l5.2-.8h.5v1.5h.1c1.1-1 2.8-1.7 4.5-1.7 2.3 0 3.3 1.1 3.3 3.5v8.3l1.4.6v1.1h-7v-1.1l1.2-.6v-7.7c0-1.3-.6-1.8-1.7-1.8-.7 0-1.3.2-1.8.4v9l1.2.6v1.1h-7v-1.1l1.4-.6z"/><path d="m514 155c.1 2.7 1.2 4 4 4 1.4 0 2.4-.3 3.3-.8v1.2c-.7 1-2.5 2.2-5.1 2.2-4.5 0-6.7-2.7-6.7-7 0-4.2 2.5-6.8 6.5-6.8 3.8 0 5.8 1.9 5.8 6.9v.3h-7.8zm-.1-1.3l3.7-.2c0-3.4-.6-4.3-1.7-4.3-1.2 0-2 1.3-2 4.6z"/><path d="m523 155c0-5.2 2.9-7.2 7.1-7.2 2.3 0 4.4.4 5.6 1.1v15.9l1.4.6v1.1h-7.3v-1.1l1.6-.6v-4.7h-.1c-.7.8-1.8 1.6-3.5 1.6-2.7 0-4.8-2-4.8-6.6zm4.6-.5c0 3.6.9 4.7 2.4 4.7.5 0 1-.1 1.4-.4v-9.3c-.3-.2-.7-.4-1.4-.4-1.5 0-2.3 1.4-2.3 5.4z"/><path d="m537 150v-1.1l5.3-.7h.6v9.7c0 1.2.6 1.6 1.6 1.6.6 0 1.2-.2 1.7-.4v-8.6l-1.4-.6v-1.1l5.3-.7h.5v11.3l1.4.7v1l-5.2.6h-.5v-1.6h-.1c-1 .9-2.3 1.7-3.9 1.7-2.5 0-3.7-1.5-3.7-3.7v-7.6l-1.4-.6z"/><path d="m560 154v-1.8c0-1.8-.6-2.5-2.1-2.5-.5 0-.8 0-1.2.1l-.9 2.9h-1.9v-3.6c1.2-.4 2.8-.8 4.9-.8 3.6 0 5.6 1 5.6 4v7.7l1.2.6v.9c-.5.3-1.4.6-2.5.6-1.7 0-2.4-.6-2.8-1.5h-.1c-.8 1-1.8 1.6-3.5 1.6-2.2 0-3.7-1.3-3.7-3.6 0-2.2 1.3-3.4 4.2-3.9l2.9-.6zm0 5.4v-4.1l-1.1.1c-1.2.1-1.7.8-1.7 2.3 0 1.7.7 2.1 1.6 2.1.5 0 .9-.1 1.2-.4z"/><path d="m572 142h.5v17.2l1.4.6v1.1h-7.1v-1.1l1.4-.6v-14.9l-1.5-.6v-1.1l5.3-.8z"/><path d="m579 142h.5v17.2l1.4.6v1.1h-7.1v-1.1l1.4-.6v-14.9l-1.5-.6v-1.1l5.3-.8z"/><path d="m587 162l.2-.6-4.9-11.9-1-.6v-1.1h7.1v1.1l-1.4.6 2.4 6.9 2.6-6.9-1.5-.6v-1.1h4.5v1.1l-1.1.6-4.9 12.7c-1.2 3.1-2.5 4.2-4.5 4.2-.8 0-1.5-.2-2.2-.6v-1.5c.5.1 1 .2 1.4.2 1.5 0 2.6-.6 3.2-2.3z"/></g><g fill="#bdbdbd"><path d="m427 104h-7v-1.6l7.8-11.3h3.5v11h1.8v1.8h-1.8v4.4h-4.4v-4.4m0-1.8v-6.9l-4.8 6.8h4.8"/><path d="m435 107v-1.5c.9.4 2 .6 3 .6 2.5 0 3.6-1.1 3.6-3.3 0-2.3-1.1-3.2-3.5-3.2-.8 0-1.5.1-2.3.3l.6-9.1h9.1l-.2 3.3h-7.2l-.3 3.9c.8-.3 2-.6 3.2-.6 3.3 0 5.3 1.7 5.3 5.3 0 3.4-2.1 5.6-6.3 5.6-2.3 0-3.9-.6-5.1-1.4"/><path d="m454 106c-4.2 0-6.2-2-6.2-4.4 0-2 1.4-3.5 3.6-4.2-2-1.3-3.1-2.8-3.1-4.8 0-2.8 2.1-4.5 5.9-4.5 4 0 5.6 1.8 5.6 4.1 0 1.9-1.5 3.2-3.4 3.7h.1c2.4 1.4 3.8 2.6 3.8 5.3 0 2.9-2.3 4.7-6.5 4.7m.3-1.5c1.6 0 2.5-.9 2.5-2.3 0-1.4-.9-2.2-2.4-3.1l-1.4-.8c-.9.8-1.4 1.8-1.4 3.2 0 1.8.9 3 2.8 3m.7-9.4c.8-.7 1.3-1.7 1.3-2.9 0-1.8-1-2.6-2.3-2.6-1.3 0-2.1.6-2.1 2.1 0 1.4.8 2.1 2.4 3l.7.4"/></g><path d="m465 99c0-4.2 2.7-6.8 7-6.8 1.7 0 3.4.2 4.2.5v4h-1.9l-.8-3c-.3-.1-.6-.2-1.1-.2-1.8 0-2.9 1.6-2.9 5 0 3.4 1.3 4.8 3.9 4.8 1.3 0 2.2-.3 3-.7v1.2c-.9 1.1-2.4 2-4.8 2-4.3 0-6.4-2.8-6.4-6.9"/><path d="m478 99c0-4.2 2.7-6.8 6.7-6.8 4 0 6.8 2.6 6.8 6.9 0 4.3-2.7 7-6.7 7-4 0-6.7-2.7-6.7-7m4.7 0c0 4.4.7 5.6 2 5.6 1.3 0 2-1.2 2-5.6 0-4.4-.7-5.5-2-5.5-1.3 0-2 1.1-2 5.5"/><path d="m493 104v-9.4l-1.4-.6v-1l5.2-.8h.5v1.5h.1c1.1-1 2.4-1.7 4.1-1.7 1.5 0 2.4.5 3 1.7 1.3-1 2.6-1.7 4.3-1.7 2.2 0 3.3 1.1 3.3 3.5v8.3l1.4.6v1h-6.8v-1l1.1-.6v-7.7c0-1.3-.6-1.8-1.6-1.8-.6 0-1.1.2-1.6.4v9.1l1.1.6v1h-6.4v-1l1.1-.6v-7.7c0-1.3-.5-1.8-1.5-1.8-.6 0-1.1.2-1.6.4v9l1.1.6v1h-6.8v-1l1.4-.6"/><path d="m522 106c-1 0-1.9-.2-2.3-.4v3.6l1.6.6v1.1h-7.3v-1.1l1.4-.6v-14.4l-1.4-.7v-1l5.3-.8h.5v1.5h.1c.7-.8 1.9-1.6 3.7-1.6 2.5 0 4.5 1.7 4.5 6.5 0 5.2-2.8 7.3-6.1 7.3m-.9-11.4c-.6 0-1 .2-1.4.4v9.2c.3.2.7.4 1.3.4 1.5 0 2.4-1.4 2.4-5.3 0-3.6-.9-4.6-2.4-4.6"/><path d="m536 98v-1.8c0-1.8-.6-2.5-2.1-2.5-.5 0-.8 0-1.2.1l-.9 2.9h-1.9v-3.6c1.2-.4 2.8-.8 4.9-.8 3.6 0 5.6 1 5.6 4v7.7l1.2.6v.9c-.5.3-1.4.6-2.5.6-1.7 0-2.4-.6-2.8-1.5h-.1c-.8 1-1.8 1.6-3.5 1.6-2.2 0-3.7-1.3-3.7-3.6 0-2.2 1.3-3.4 4.2-3.9l2.9-.6m0 5.4v-4.1l-1.1.1c-1.2.1-1.7.8-1.7 2.3 0 1.7.7 2.1 1.6 2.1.5 0 .9-.1 1.2-.4"/><path d="m544 104v-9.4l-1.4-.6v-1l5.2-.8h.5v1.5h.1c1.1-1 2.8-1.7 4.5-1.7 2.3 0 3.3 1.1 3.3 3.5v8.3l1.4.6v1.1h-7v-1.1l1.2-.6v-7.7c0-1.3-.6-1.8-1.7-1.8-.7 0-1.3.2-1.8.4v9l1.2.6v1.1h-7v-1.1l1.4-.6"/><path d="m563 92h.5v11.7l1.3.6v1h-7.1v-1l1.4-.6v-9.4l-1.5-.6v-1l5.4-.8m.5-3.1c0 1.3-1.1 2.2-2.3 2.2-1.3 0-2.3-1-2.3-2.2 0-1.3 1-2.3 2.3-2.3 1.2 0 2.3 1 2.3 2.3"/><path d="m571 99c.1 2.7 1.2 4 4 4 1.4 0 2.4-.3 3.3-.8v1.2c-.7 1-2.5 2.2-5.1 2.2-4.5 0-6.7-2.7-6.7-7 0-4.2 2.5-6.8 6.5-6.8 3.8 0 5.8 1.9 5.8 6.9v.3h-7.8m-.1-1.3l3.7-.2c0-3.4-.6-4.3-1.7-4.3-1.2 0-2 1.3-2 4.6"/><path d="m590 101c0 2.9-1.8 4.6-5.7 4.6-1.5 0-3.2-.2-4.5-.7l-.1-3.4h1.6l1 2.3c.5.3 1.2.5 2 .5 1.5 0 2.2-.6 2.2-1.7 0-.9-.5-1.3-1.8-1.6l-.9-.2c-2.8-.7-4.1-2-4.1-4.5 0-2.6 1.7-4.4 5.4-4.4 1.5 0 3 .2 4 .6v3.2h-1.6l-.7-2.1c-.4-.2-.9-.3-1.7-.3-1.3 0-1.9.6-1.9 1.5 0 .9.5 1.3 1.9 1.7l.9.2c2.8.7 3.9 1.9 3.9 4.4"/><path d="m428 134c-1 0-1.9-.2-2.3-.4v3.6l1.6.6v1.1h-7.3v-1.1l1.4-.6v-14.4l-1.4-.7v-1l5.3-.8h.5v1.5h.1c.7-.8 1.9-1.6 3.7-1.6 2.5 0 4.5 1.7 4.5 6.5 0 5.2-2.8 7.3-6.1 7.3m-.9-11.4c-.6 0-1 .2-1.4.4v9.2c.3.2.7.4 1.3.4 1.5 0 2.4-1.4 2.4-5.3 0-3.6-.9-4.6-2.4-4.6"/><path d="m442 126v-1.8c0-1.8-.6-2.5-2.1-2.5-.5 0-.8 0-1.2.1l-.9 2.9h-1.9v-3.6c1.2-.4 2.8-.8 4.9-.8 3.6 0 5.6 1 5.6 4v7.7l1.2.6v.9c-.5.3-1.4.6-2.5.6-1.7 0-2.4-.6-2.8-1.5h-.1c-.8 1-1.8 1.6-3.5 1.6-2.2 0-3.7-1.3-3.7-3.6 0-2.2 1.3-3.4 4.2-3.9l2.9-.6m0 5.4v-4.1l-1.1.1c-1.2.1-1.7.8-1.7 2.3 0 1.7.7 2.1 1.6 2.1.5 0 .9-.1 1.2-.4"/><path d="m454 134l.2-.6-4.9-11.9-1-.6v-1.1h7.1v1.1l-1.4.6 2.4 6.9 2.6-6.9-1.5-.6v-1.1h4.5v1.1l-1.1.6-4.9 12.7c-1.2 3.1-2.5 4.2-4.5 4.2-.8 0-1.5-.2-2.2-.6v-1.5c.5.1 1 .2 1.4.2 1.5 0 2.6-.6 3.2-2.3"/><path d="m468 132v-9.4l-1.4-.6v-1l5.2-.8h.5v1.5h.1c1.1-1 2.4-1.7 4.1-1.7 1.5 0 2.4.5 3 1.7 1.3-1 2.6-1.7 4.3-1.7 2.2 0 3.3 1.1 3.3 3.5v8.3l1.4.6v1h-6.8v-1l1.1-.6v-7.7c0-1.3-.6-1.8-1.6-1.8-.6 0-1.1.2-1.6.4v9.1l1.1.6v1h-6.4v-1l1.1-.6v-7.7c0-1.3-.5-1.8-1.5-1.8-.6 0-1.1.2-1.6.4v9l1.1.6v1h-6.8v-1l1.4-.6"/><path d="m493 127c.1 2.7 1.2 4 4 4 1.4 0 2.4-.3 3.3-.8v1.2c-.7 1-2.5 2.2-5.1 2.2-4.5 0-6.7-2.7-6.7-7 0-4.2 2.5-6.8 6.5-6.8 3.8 0 5.8 1.9 5.8 6.9v.3h-7.8m-.1-1.3l3.7-.2c0-3.4-.6-4.3-1.7-4.3-1.2 0-2 1.3-2 4.6"/><path d="m503 132v-9.4l-1.4-.6v-1l5.2-.8h.5v1.5h.1c1.1-1 2.8-1.7 4.5-1.7 2.3 0 3.3 1.1 3.3 3.5v8.3l1.4.6v1.1h-7v-1.1l1.2-.6v-7.7c0-1.3-.6-1.8-1.7-1.8-.7 0-1.3.2-1.8.4v9l1.2.6v1.1h-7v-1.1l1.4-.6"/><path d="m529 126v-1.8c0-1.8-.6-2.5-2.1-2.5-.5 0-.8 0-1.2.1l-.9 2.9h-1.9v-3.6c1.2-.4 2.8-.8 4.9-.8 3.6 0 5.6 1 5.6 4v7.7l1.2.6v.9c-.5.3-1.4.6-2.5.6-1.7 0-2.4-.6-2.8-1.5h-.1c-.8 1-1.8 1.6-3.5 1.6-2.2 0-3.7-1.3-3.7-3.6 0-2.2 1.3-3.4 4.2-3.9l2.9-.6m0 5.4v-4.1l-1.1.1c-1.2.1-1.7.8-1.7 2.3 0 1.7.7 2.1 1.6 2.1.5 0 .9-.1 1.2-.4"/><path d="m537 132v-9.4l-1.4-.6v-1l5.2-.8h.5v1.5h.1c1.1-1 2.8-1.7 4.5-1.7 2.3 0 3.3 1.1 3.3 3.5v8.3l1.4.6v1.1h-7v-1.1l1.2-.6v-7.7c0-1.3-.6-1.8-1.7-1.8-.7 0-1.3.2-1.8.4v9l1.2.6v1.1h-7v-1.1l1.4-.6"/><path d="m559 120v-3.6l-1.4-.5v-1.1l5.3-.8h.5v16.8l1.5.7v1.1l-5.2.6h-.4v-1.4h-.1c-.8.8-1.8 1.5-3.5 1.5-2.9 0-4.9-2.2-4.9-6.6 0-4.7 2.4-7.1 6.1-7.1 1.1 0 1.8.2 2.3.4m0 10.8v-9.3c-.3-.2-.7-.4-1.4-.4-1.4 0-2.3 1.5-2.3 5.3 0 3.4.8 4.8 2.5 4.8.5 0 1-.1 1.2-.3"/><path d="m435 156h.2l1.5-6.2-1.2-.6v-1.1h4.3v1.1l-1.1.6-3.2 11.4h-3.4l-2.2-7-2.1 7h-3.4l-3.3-11.4-1.2-.6v-1.1h7v1.1l-1.2.6 1.5 6.2h.2l2.1-7.9h2.9l2.5 7.9"/><path d="m440 155c0-4.2 2.7-6.8 6.7-6.8 4 0 6.8 2.6 6.8 6.9 0 4.3-2.7 7-6.7 7-4 0-6.7-2.7-6.7-7m4.7 0c0 4.4.7 5.6 2 5.6 1.3 0 2-1.2 2-5.6 0-4.4-.7-5.5-2-5.5-1.3 0-2 1.1-2 5.5"/><path d="m456 160v-9.4l-1.4-.6v-1l5.2-.8h.5v1.5h.1c1.1-1 2.4-1.7 4.1-1.7 1.5 0 2.4.5 3 1.7 1.3-1 2.6-1.7 4.3-1.7 2.2 0 3.3 1.1 3.3 3.5v8.3l1.4.6v1h-6.8v-1l1.1-.6v-7.7c0-1.3-.6-1.8-1.6-1.8-.6 0-1.1.2-1.6.4v9.1l1.1.6v1h-6.4v-1l1.1-.6v-7.7c0-1.3-.5-1.8-1.5-1.8-.6 0-1.1.2-1.6.4v9l1.1.6v1h-6.8v-1l1.4-.6"/><path d="m481 155c.1 2.7 1.2 4 4 4 1.4 0 2.4-.3 3.3-.8v1.2c-.7 1-2.5 2.2-5.1 2.2-4.5 0-6.7-2.7-6.7-7 0-4.2 2.5-6.8 6.5-6.8 3.8 0 5.8 1.9 5.8 6.9v.3h-7.8m-.1-1.3l3.7-.2c0-3.4-.6-4.3-1.7-4.3-1.2 0-2 1.3-2 4.6"/><path d="m491 160v-9.4l-1.4-.6v-1l5.2-.8h.5v1.5h.1c1.1-1 2.8-1.7 4.5-1.7 2.3 0 3.3 1.1 3.3 3.5v8.3l1.4.6v1.1h-7v-1.1l1.2-.6v-7.7c0-1.3-.6-1.8-1.7-1.8-.7 0-1.3.2-1.8.4v9l1.2.6v1.1h-7v-1.1l1.4-.6"/><path d="m514 155c.1 2.7 1.2 4 4 4 1.4 0 2.4-.3 3.3-.8v1.2c-.7 1-2.5 2.2-5.1 2.2-4.5 0-6.7-2.7-6.7-7 0-4.2 2.5-6.8 6.5-6.8 3.8 0 5.8 1.9 5.8 6.9v.3h-7.8m-.1-1.3l3.7-.2c0-3.4-.6-4.3-1.7-4.3-1.2 0-2 1.3-2 4.6"/><path d="m523 155c0-5.2 2.9-7.2 7.1-7.2 2.3 0 4.4.4 5.6 1.1v15.9l1.4.6v1.1h-7.3v-1.1l1.6-.6v-4.7h-.1c-.7.8-1.8 1.6-3.5 1.6-2.7 0-4.8-2-4.8-6.6m4.6-.5c0 3.6.9 4.7 2.4 4.7.5 0 1-.1 1.4-.4v-9.3c-.3-.2-.7-.4-1.4-.4-1.5 0-2.3 1.4-2.3 5.4"/><path d="m537 150v-1.1l5.3-.7h.6v9.7c0 1.2.6 1.6 1.6 1.6.6 0 1.2-.2 1.7-.4v-8.6l-1.4-.6v-1.1l5.3-.7h.5v11.3l1.4.7v1l-5.2.6h-.5v-1.6h-.1c-1 .9-2.3 1.7-3.9 1.7-2.5 0-3.7-1.5-3.7-3.7v-7.6l-1.4-.6"/><path d="m560 154v-1.8c0-1.8-.6-2.5-2.1-2.5-.5 0-.8 0-1.2.1l-.9 2.9h-1.9v-3.6c1.2-.4 2.8-.8 4.9-.8 3.6 0 5.6 1 5.6 4v7.7l1.2.6v.9c-.5.3-1.4.6-2.5.6-1.7 0-2.4-.6-2.8-1.5h-.1c-.8 1-1.8 1.6-3.5 1.6-2.2 0-3.7-1.3-3.7-3.6 0-2.2 1.3-3.4 4.2-3.9l2.9-.6m0 5.4v-4.1l-1.1.1c-1.2.1-1.7.8-1.7 2.3 0 1.7.7 2.1 1.6 2.1.5 0 .9-.1 1.2-.4"/><path d="m572 142h.5v17.2l1.4.6v1.1h-7.1v-1.1l1.4-.6v-14.9l-1.5-.6v-1.1l5.3-.8"/><path d="m579 142h.5v17.2l1.4.6v1.1h-7.1v-1.1l1.4-.6v-14.9l-1.5-.6v-1.1l5.3-.8"/><path d="m587 162l.2-.6-4.9-11.9-1-.6v-1.1h7.1v1.1l-1.4.6 2.4 6.9 2.6-6.9-1.5-.6v-1.1h4.5v1.1l-1.1.6-4.9 12.7c-1.2 3.1-2.5 4.2-4.5 4.2-.8 0-1.5-.2-2.2-.6v-1.5c.5.1 1 .2 1.4.2 1.5 0 2.6-.6 3.2-2.3"/></svg>